<svg xmlns="http://www.w3.org/2000/svg" width="20" height="21" fill="none" viewBox="0 0 20 21"><path fill="currentColor" d="M14.167 6.333a.834.834 0 0 1-.833.834H6.667a.833.833 0 0 1 0-1.667h6.667a.833.833 0 0 1 .833.833Zm5-1.666v11.666A4.172 4.172 0 0 1 15 20.5H5a4.172 4.172 0 0 1-4.167-4.167V4.667A4.172 4.172 0 0 1 5 .5h10a4.172 4.172 0 0 1 4.167 4.167ZM5.833 15.5a.834.834 0 1 0-1.667 0 .834.834 0 0 0 1.667 0Zm0-3.333a.833.833 0 1 0-1.666 0 .833.833 0 0 0 1.667 0ZM9.168 15.5a.834.834 0 1 0-1.667 0 .834.834 0 0 0 1.667 0Zm0-3.333a.833.833 0 1 0-1.667 0 .833.833 0 0 0 1.667 0Zm6.667 3.333a.833.833 0 0 0-.834-.833h-3.333a.834.834 0 0 0 0 1.666H15a.834.834 0 0 0 .834-.833ZM11.667 13a.834.834 0 1 0 0-1.668.834.834 0 0 0 0 1.668Zm4.167-.833a.834.834 0 1 0-1.668 0 .834.834 0 0 0 1.668 0Zm0-5.834a2.5 2.5 0 0 0-2.5-2.5H6.667a2.5 2.5 0 0 0 0 5h6.667a2.5 2.5 0 0 0 2.5-2.5Z"/></svg>