<svg xmlns="http://www.w3.org/2000/svg" width="20" height="20" fill="none" viewBox="0 0 20 20"><path fill="currentColor" d="m18.731 5.777-1.756 7.026c-.14.558-.638.947-1.213.947H4.932a1.25 1.25 0 0 1-1.242-1.105L2.424 2.5h-.861a.937.937 0 1 1 0-1.875h1.679c.469 0 .865.346.929.81L4.659 5h13.466c.406 0 .705.383.606.777ZM4.375 16.875c0 1.034.841 1.875 1.875 1.875a1.877 1.877 0 0 0 1.875-1.875A1.877 1.877 0 0 0 6.25 15a1.877 1.877 0 0 0-1.875 1.875ZM15.625 16.875A1.877 1.877 0 0 0 13.75 15a1.877 1.877 0 0 0-1.875 1.875c0 1.034.841 1.875 1.875 1.875a1.877 1.877 0 0 0 1.875-1.875Z"/></svg>