<svg xmlns="http://www.w3.org/2000/svg" width="18" height="18" fill="none" viewBox="0 0 18 18"><path fill="#DEDEDE" d="m4.357 3 10.854 10.853-1.143 1.143L3.214 4.142z"/><path fill="#DEDEDE" d="M3 13.857 13.853 3.004l1.143 1.142L4.142 15z"/><circle cx="9" cy="9" r="9" fill="#D75150"/><path fill="#fff" d="M5.287 5.287a.75.75 0 0 1 1.061 0L9 7.94l2.652-2.652a.75.75 0 0 1 1.06 1.061L10.06 9l2.652 2.652a.75.75 0 0 1-1.06 1.06L9 10.06l-2.652 2.652a.75.75 0 0 1-1.06-1.06L7.938 9 5.287 6.348a.75.75 0 0 1 0-1.06Z"/></svg>