<svg xmlns="http://www.w3.org/2000/svg" width="20" height="20" fill="none" viewBox="0 0 20 20"><path fill="currentColor" d="M12.5 15H3.333A3.333 3.333 0 0 1 0 11.665V5A4.167 4.167 0 0 1 4.167.833h4.166A4.167 4.167 0 0 1 12.5 4.999v10ZM20 9.165v-.833a4.167 4.167 0 0 0-4.167-4.167h-1.666v5H20Zm-5.833 1.667v4.166h2.5A3.333 3.333 0 0 0 20 11.666v-.833h-5.833ZM3.382 16.666c-.03.137-.047.277-.049.417a2.083 2.083 0 1 0 4.167 0 2.02 2.02 0 0 0-.048-.417h-4.07Zm9.166 0a2.02 2.02 0 0 0-.048.417 2.083 2.083 0 1 0 4.167 0 2.014 2.014 0 0 0-.049-.417h-4.07Z"/></svg>