<svg xmlns="http://www.w3.org/2000/svg" width="36" height="36" fill="none" viewBox="0 0 36 36"><g fill="currentColor"><path d="M32.513 26.896a1.537 1.537 0 0 1 0-1.358l1.956-4a4.552 4.552 0 0 0-1.964-6.045l-3.934-2.087a1.537 1.537 0 0 1-.798-1.099l-.77-4.386a4.552 4.552 0 0 0-5.141-3.736l-4.41.624a1.537 1.537 0 0 1-1.291-.42l-3.2-3.096a4.552 4.552 0 0 0-6.356 0l-3.2 3.096a1.537 1.537 0 0 1-1.292.42l-4.41-.624a4.551 4.551 0 0 0-5.141 3.736l-.77 4.386a1.537 1.537 0 0 1-.798 1.099l-3.934 2.087a4.552 4.552 0 0 0-1.964 6.045l1.956 4c.21.432.21.927 0 1.359l-1.956 4a4.552 4.552 0 0 0 1.964 6.045l3.934 2.087c.424.225.715.626.798 1.099l.77 4.386a4.55 4.55 0 0 0 5.142 3.736l4.409-.624c.475-.067.946.086 1.291.42l3.2 3.096a4.556 4.556 0 0 0 3.179 1.293 4.558 4.558 0 0 0 3.178-1.293l3.2-3.096a1.538 1.538 0 0 1 1.292-.42l4.409.624a4.551 4.551 0 0 0 5.142-3.736l.77-4.386c.082-.473.373-.874.797-1.099l3.934-2.087a4.552 4.552 0 0 0 1.964-6.045l-1.956-4ZM3.734 12.608a5.55 5.55 0 0 1 5.545 5.545 5.55 5.55 0 0 1-5.545 5.544 5.55 5.55 0 0 1-5.544-5.544 5.55 5.55 0 0 1 5.544-5.544ZM.872 37.267a1.508 1.508 0 0 1-1.069.443 1.512 1.512 0 0 1-1.07-2.581l19.96-19.96a1.512 1.512 0 0 1 2.138 2.14L.872 37.265Zm14.959 2.56a5.55 5.55 0 0 1-5.544-5.544 5.55 5.55 0 0 1 5.544-5.544 5.55 5.55 0 0 1 5.544 5.544 5.55 5.55 0 0 1-5.544 5.545Z"/><path d="M15.831 31.762c-1.39 0-2.52 1.13-2.52 2.52 0 1.39 1.13 2.52 2.52 2.52 1.39 0 2.52-1.13 2.52-2.52 0-1.39-1.13-2.52-2.52-2.52ZM3.734 15.633c-1.39 0-2.52 1.13-2.52 2.52 0 1.39 1.13 2.52 2.52 2.52 1.39 0 2.52-1.13 2.52-2.52 0-1.39-1.13-2.52-2.52-2.52Z"/></g></svg>