<svg xmlns="http://www.w3.org/2000/svg" width="20" height="21" fill="none" viewBox="0 0 20 21"><path fill="currentColor" d="M19.927 8.212a.555.555 0 0 0-.055-.418l-2.55-4.412a.551.551 0 0 0-.753-.2L14.43 4.417a7.427 7.427 0 0 0-1.259-.727V1.218a.55.55 0 0 0-.55-.55H7.523a.55.55 0 0 0-.55.55V3.69c-.416.19-.813.416-1.188.678l-2.127-1.26a.552.552 0 0 0-.755.193L.305 7.685a.55.55 0 0 0 .193.754l2.128 1.26c-.034.287-.05.554-.05.812 0 .228.013.465.041.727L.475 12.476a.55.55 0 0 0-.202.752l2.55 4.412a.55.55 0 0 0 .752.201l2.14-1.235c.394.282.815.525 1.258.726v2.472c0 .304.246.55.55.55h5.098a.55.55 0 0 0 .55-.55v-2.471a7.458 7.458 0 0 0 1.188-.679l2.128 1.26a.55.55 0 0 0 .754-.192l2.599-4.384a.55.55 0 0 0-.194-.754l-2.127-1.26a6.82 6.82 0 0 0 .05-.812c0-.231-.013-.471-.04-.728l2.141-1.237a.551.551 0 0 0 .257-.335Zm-6.907 2.299a2.952 2.952 0 0 1-2.948 2.948 2.951 2.951 0 0 1-2.948-2.948 2.95 2.95 0 0 1 2.948-2.947 2.951 2.951 0 0 1 2.948 2.947Z"/></svg>