<svg xmlns="http://www.w3.org/2000/svg" width="63" height="53" fill="none" viewBox="0 0 63 53"><circle cx="44.094" cy="18.5" r="18.5" fill="#FFE600"/><path fill="#8E7F58" d="m21.15 52.684.397.206a.988.988 0 0 0 .906 0l.397-.206a38.992 38.992 0 0 0 15.441-14.492A39.758 39.758 0 0 0 44 17.654v-5.291c0-.183-.05-.364-.142-.52a1 1 0 0 0-.387-.372L22.47.119a.99.99 0 0 0-.94 0L.53 11.47a1.019 1.019 0 0 0-.53.892v5.29c0 7.25 1.977 14.358 5.709 20.54a38.992 38.992 0 0 0 15.44 14.49ZM1.994 12.97 22 2.158 42.006 12.97v4.684a37.551 37.551 0 0 1-5.376 19.469A36.827 36.827 0 0 1 22 50.853a36.828 36.828 0 0 1-14.63-13.73 37.552 37.552 0 0 1-5.376-19.47V12.97Z"/><path fill="#8E7F58" d="M19.112 32.966a1 1 0 0 0 .769.367.986.986 0 0 0 .767-.367l12.519-15.329a1.014 1.014 0 0 0 .256-.752 1.02 1.02 0 0 0-.36-.707.994.994 0 0 0-.752-.225.987.987 0 0 0-.68.397L19.884 30.73l-4.773-5.886a1.002 1.002 0 0 0-.674-.364.985.985 0 0 0-.73.226 1.009 1.009 0 0 0-.36.684 1.026 1.026 0 0 0 .223.742l5.542 6.834Z"/></svg>