<svg xmlns="http://www.w3.org/2000/svg" width="70" height="51" fill="none" viewBox="0 0 70 51"><circle cx="50.957" cy="30.5" r="18.5" fill="#FFE600"/><path fill="#8E7F58" d="M.988 50.14h.118l16.224-1.95 16.225 1.95h.235l16.34-1.972a.987.987 0 0 0 .87-.979V7.111a.988.988 0 0 0-1.104-.978l-6.274.754a10.68 10.68 0 0 0-19.912 0l-6.274-.754H17.21L.87 8.105a.986.986 0 0 0-.87.978v40.071a.988.988 0 0 0 .986.986h.002Zm48.04-41.917v38.092l-14.37 1.726V26.72c1.627-1.758 9.699-10.74 9.699-15.954 0-.656-.06-1.31-.18-1.954l4.851-.59ZM33.671 2.046a8.724 8.724 0 0 1 8.714 8.72c0 3.738-5.747 10.849-8.714 14.122-2.972-3.278-8.708-10.39-8.708-14.122a8.725 8.725 0 0 1 8.708-8.72Zm-.986 24.674v21.32l-14.369-1.725V8.223l4.855.584a10.62 10.62 0 0 0-.18 1.954c0 5.224 8.067 14.206 9.694 15.96ZM1.974 9.95l14.37-1.727v38.092L1.975 48.04V9.95Z"/><path fill="#8E7F58" d="M33.671 14.86a4.102 4.102 0 1 0 .004-8.203 4.102 4.102 0 0 0-.004 8.204Zm0-6.228a2.13 2.13 0 1 1 .004 4.26 2.13 2.13 0 0 1-.004-4.26Z"/></svg>