<svg xmlns="http://www.w3.org/2000/svg" width="63" height="53" fill="none" viewBox="0 0 63 53"><circle cx="44.495" cy="31.5" r="18.5" fill="#FFE600"/><path fill="#8E7F58" d="M23.472 0c-.664-.023-3.224 1.281-4.357 1.918a39.536 39.536 0 0 0-8.037 5.998C4.238 14.576.754 23.166 1 32.795a20.232 20.232 0 0 0 1.767 7.782 20.418 20.418 0 0 0 4.647 6.518A21.794 21.794 0 0 0 22.482 53c11.854 0 21.498-9.082 21.498-20.242a19.319 19.319 0 0 0-3.41-10.945 21.186 21.186 0 0 0-8.815-7.32 1.098 1.098 0 0 0-1.408.463 1.067 1.067 0 0 0-.132.516v5.82c0 1.45-1.282 2.629-2.858 2.629s-2.86-1.175-2.86-2.629V1.076c.001-.275-.105-.54-.296-.74-.19-.2-.451-.32-.73-.336Zm-.93 50.79a7.5 7.5 0 0 1-2.854-.524 7.436 7.436 0 0 1-2.432-1.566 7.347 7.347 0 0 1-1.64-2.367 7.282 7.282 0 0 1-.6-2.809c-.037-3.118 4.682-9.348 7.284-12.42 2.673 3.011 7.54 9.127 7.578 12.246a7.282 7.282 0 0 1-.53 2.822 7.344 7.344 0 0 1-1.581 2.406 7.435 7.435 0 0 1-2.393 1.623 7.498 7.498 0 0 1-2.839.593l.006-.004Zm4.821-24.704c2.773 0 5.036-2.155 5.036-4.784v-4.07c5.767 3.24 9.408 9.169 9.408 15.526 0 7.526-4.937 13.993-11.937 16.713a9.371 9.371 0 0 0 2.192-6.156c-.06-4.93-8.065-13.611-8.978-14.585a1.087 1.087 0 0 0-.812-.345 1.096 1.096 0 0 0-.802.365c-.89.995-8.685 9.863-8.626 14.79a9.38 9.38 0 0 0 2.15 5.877C8.163 46.69 3.362 40.323 3.168 32.724c-.237-9.234 3.002-17.13 9.626-23.47a36.144 36.144 0 0 1 9.531-6.57v18.61c0 2.635 2.26 4.782 5.038 4.782v.01Z"/></svg>