<svg xmlns="http://www.w3.org/2000/svg" width="64" height="54" fill="none" viewBox="0 0 64 54"><circle cx="44.957" cy="19.2" r="18.5" fill="#FFE600"/><path fill="#8E7F58" d="M18.423 4.204h-1.771v1.752h1.771V4.204ZM27.283 4.204h-7.088v1.752h7.088V4.204Z"/><path fill="#8E7F58" d="M48.545 39.245a3.514 3.514 0 0 0-2.277.824 3.536 3.536 0 0 0-1.293-1.244 3.586 3.586 0 0 0-1.745-.456 3.514 3.514 0 0 0-2.277.824 3.527 3.527 0 0 0-1.267-1.227V6.832a6.105 6.105 0 0 0-1.819-4.334A6.244 6.244 0 0 0 33.484.7h-19.49A6.244 6.244 0 0 0 9.61 2.498a6.105 6.105 0 0 0-1.819 4.334v15.996a4.427 4.427 0 0 0-1.564.885c-.454.398-.82.884-1.076 1.428l-3.553 7.613a9.41 9.41 0 0 0-.894 4.038v16.47h1.771v-16.47a7.691 7.691 0 0 1 .736-3.302l3.552-7.613a2.56 2.56 0 0 1 1.028-1.112V40.12c.001.29.025.58.07.868l-.566.972 1.533.876 5.315-9.102a1.759 1.759 0 0 1 1.072-.823 1.843 1.843 0 0 1 1.347.175c.406.234.702.619.824 1.068.12.45.057.929-.177 1.332l-3.987 6.825a.894.894 0 0 0 .009.893l1.905 3.119c.408.681.626 1.459.628 2.251v4.678h1.772v-4.678a6.14 6.14 0 0 0-.47-2.321h5.378c.078.317.197.624.355.91l3.818 6.536 1.533-.876-3.819-6.535a1.739 1.739 0 0 1 .61-2.457 1.785 1.785 0 0 1 2.456.705l1.772 3.03c.1.167.25.297.431.371a.887.887 0 0 0 1.044-.273.87.87 0 0 0 .181-.535V32.237c0-.465.187-.91.52-1.239a1.782 1.782 0 0 1 2.505 0c.333.329.52.774.52 1.24v12.264c0 .232.093.455.259.62a.891.891 0 0 0 1.253 0 .871.871 0 0 0 .26-.62v-3.505c0-.464.186-.91.518-1.238a1.782 1.782 0 0 1 2.506 0c.332.328.519.774.519 1.239v3.504c0 .232.093.455.26.62a.891.891 0 0 0 1.252 0 .871.871 0 0 0 .26-.62v-2.629c0-.464.186-.91.519-1.238a1.782 1.782 0 0 1 2.506 0c.332.328.519.774.519 1.239v2.628c0 .232.093.455.259.62a.891.891 0 0 0 1.253 0 .872.872 0 0 0 .26-.62v-1.753c0-.464.186-.91.518-1.238a1.782 1.782 0 0 1 2.506 0c.332.328.52.774.52 1.238v10.513h1.771V42.749c0-.929-.373-1.82-1.038-2.477a3.564 3.564 0 0 0-2.506-1.027Zm-23.034 1.753h-3.544a.891.891 0 0 1-.626-.257.871.871 0 0 1 0-1.239.891.891 0 0 1 .626-.257h3.544c.235 0 .46.093.626.257a.871.871 0 0 1 0 1.239.891.891 0 0 1-.626.257Zm12.403-3.505c-.623.001-1.234.164-1.772.473v-5.729c0-.93-.373-1.82-1.038-2.478a3.565 3.565 0 0 0-2.506-1.026c-.94 0-1.84.37-2.505 1.026a3.485 3.485 0 0 0-1.038 2.478v11.625l-.116-.201a3.474 3.474 0 0 0-1.78-1.498c.313-.243.567-.552.742-.906.175-.354.267-.742.268-1.136a2.622 2.622 0 0 0-.781-1.856 2.681 2.681 0 0 0-1.877-.772h-3.544c-.705 0-1.38.277-1.88.77a2.613 2.613 0 0 0-.778 1.858c0 .697.28 1.366.779 1.859.498.493 1.174.77 1.88.77h1.603a3.466 3.466 0 0 0-1.126 1.752h-6.352l-1.072-1.761 3.73-6.378a3.47 3.47 0 0 0 .354-2.66 3.51 3.51 0 0 0-1.652-2.127 3.58 3.58 0 0 0-2.69-.35 3.54 3.54 0 0 0-2.151 1.633l-3.048 5.212V6.832c0-1.162.467-2.276 1.297-3.097a4.455 4.455 0 0 1 3.133-1.283h19.49c1.175 0 2.302.462 3.133 1.283a4.356 4.356 0 0 1 1.297 3.097v30.661Z"/><path fill="#8E7F58" d="M29.94 15.593h-2.657v-.877c0-.929-.374-1.82-1.038-2.477a3.564 3.564 0 0 0-2.506-1.027c-.94 0-1.841.37-2.506 1.027a3.485 3.485 0 0 0-1.038 2.477v.877h-2.658a.89.89 0 0 0-.626.256.87.87 0 0 0-.26.62V26.98c.003.696.283 1.364.781 1.856a2.68 2.68 0 0 0 1.877.772h8.86a2.68 2.68 0 0 0 1.877-.772c.498-.492.778-1.16.78-1.856V16.469a.87.87 0 0 0-.259-.62.89.89 0 0 0-.626-.256Zm-7.973-.877c0-.464.187-.91.52-1.238a1.782 1.782 0 0 1 2.505 0c.332.328.519.774.519 1.239v.876h-3.544v-.877Zm7.088 12.265a.871.871 0 0 1-.26.62.891.891 0 0 1-.626.256h-8.86a.89.89 0 0 1-.626-.257.87.87 0 0 1-.26-.619v-.876h10.632v.876Zm0-2.628H18.423v-7.008h1.772v1.752h1.772v-1.752h3.544v1.752h1.772v-1.752h1.772v7.008Z"/></svg>