<svg xmlns="http://www.w3.org/2000/svg" width="20" height="20" fill="none" viewBox="0 0 20 20"><g fill="currentColor"><path d="M15.814 3.7a.486.486 0 1 0 0 .973.486.486 0 0 0 0-.972ZM10 5.695A4.31 4.31 0 0 0 5.696 10 4.31 4.31 0 0 0 10 14.305 4.31 4.31 0 0 0 14.305 10 4.31 4.31 0 0 0 10 5.695Z"/><path d="M14.517 0H5.483A5.489 5.489 0 0 0 0 5.483v9.034A5.489 5.489 0 0 0 5.483 20h9.034A5.489 5.489 0 0 0 20 14.517V5.483A5.489 5.489 0 0 0 14.517 0ZM10 15.486A5.492 5.492 0 0 1 4.514 10 5.492 5.492 0 0 1 10 4.514 5.492 5.492 0 0 1 15.486 10 5.492 5.492 0 0 1 10 15.486Zm5.814-9.633a1.668 1.668 0 0 1-1.667-1.667 1.667 1.667 0 1 1 1.667 1.667Z"/></g></svg>