<svg xmlns="http://www.w3.org/2000/svg" width="233" height="74" fill="none" viewBox="0 0 233 74"><path fill="#FFD600" d="M33.61.158a8.665 8.665 0 0 0-5.473 1.936l-25.04 20.36a8.315 8.315 0 0 0-3.092 6.447v34.66c0 4.628 3.835 8.381 8.564 8.381h47.02v-4.11H8.569c-2.409 0-4.363-1.913-4.363-4.27v-34.66c0-1.27.577-2.475 1.574-3.286l25.04-20.36a4.436 4.436 0 0 1 5.576 0l20.77 16.88h6.576l-24.66-20.04A8.663 8.663 0 0 0 33.609.16z"/><path fill="#333" d="M50.2 31.24 39.86 54.15 29.6 31.24h-4.398l12.54 27.89h4.031l12.5-27.89h-4.072zm42.12 27.9-.04-27.89h-3.34l-11.73 19.6-11.89-19.6h-3.339v27.89h3.91v-20.2l10.3 16.82h1.872l10.3-16.93.041 20.32h3.91zM109 55.67v-9.005h14.29v-3.387H109v-8.567h16.04v-3.467h-20.12v27.89h20.68v-3.467h-16.61zm33 3.47h4.031V34.71h9.772v-3.467h-23.58v3.467h9.773v24.43zm45.8-.25-6.76-9.364c3.991-1.395 6.271-4.503 6.271-8.806 0-6.057-4.479-9.722-11.89-9.722h-11.12v27.89h4.072v-8.487h7.044c.611 0 1.222-.04 1.792-.08l6.148 8.567h4.439zm-12.5-11.87h-6.922V34.47h6.922c5.212 0 7.94 2.271 7.94 6.256s-2.728 6.296-7.94 6.296zm26.7 8.65v-9.005h14.29v-3.387H202v-8.567h16.04v-3.467h-20.12v27.89h20.68v-3.467h-16.61z"/><path fill="#FFD600" d="M230 59.38c1.466 0 2.688-1.156 2.688-2.749 0-1.594-1.222-2.71-2.688-2.71-1.506 0-2.768 1.116-2.768 2.71 0 1.594 1.262 2.749 2.768 2.749z"/></svg>