<svg xmlns="http://www.w3.org/2000/svg" width="36" height="36" fill="none" viewBox="0 0 36 36"><path fill="currentColor" d="m35.06 4.453-2.766-3.375q-.422-.469-1.008-.773T29.997 0h-24q-.703 0-1.312.305-.61.304-.984.773L.935 4.453q-.47.516-.703 1.172-.235.656-.235 1.359v25.03q0 1.641 1.172 2.812 1.172 1.172 2.812 1.172h28.03q1.641 0 2.812-1.172 1.172-1.172 1.172-2.812V6.984q0-.703-.234-1.359-.235-.656-.703-1.172zM6.47 3.984h23.06l1.594 1.97H4.874zm-2.484 28.03V9.984h28.03v22.03zm16.92-18h-5.812v6H9.985l8.016 7.97 8.016-7.97h-5.109z"/></svg>