<svg xmlns="http://www.w3.org/2000/svg" width="20" height="20" fill="none" viewBox="0 0 20 20"><path fill="#333" d="M1.667 12.5h7.5V20H5.833a4.167 4.167 0 0 1-4.166-4.167V12.5ZM20 9.167a1.667 1.667 0 0 1-1.667 1.666h-7.5V7.464c-.28.022-.559.036-.833.036-.274 0-.553-.014-.833-.036v3.37h-7.5A1.667 1.667 0 0 1 0 9.166a3.333 3.333 0 0 1 3.333-3.334h1.449A4.28 4.28 0 0 1 3.333 2.5.833.833 0 0 1 5 2.5c0 2.185 1.976 2.942 3.478 3.2A7.777 7.777 0 0 1 7.5 2.5a2.5 2.5 0 1 1 5 0 7.777 7.777 0 0 1-.978 3.2C13.024 5.443 15 4.686 15 2.5a.833.833 0 1 1 1.667 0 4.281 4.281 0 0 1-1.449 3.333h1.449A3.333 3.333 0 0 1 20 9.167ZM9.167 2.5c.1.886.384 1.74.833 2.51.449-.77.733-1.624.833-2.51a.834.834 0 0 0-1.666 0ZM10.833 20h3.334a4.167 4.167 0 0 0 4.166-4.167V12.5h-7.5V20Z"/></svg>