<svg xmlns="http://www.w3.org/2000/svg" width="20" height="21" fill="none" viewBox="0 0 20 21"><g fill="currentColor"><path d="m8.536 12.734.15-.148-.004-.004c-.194-.196 1.095-1.506 1.095-1.506L7.993 9.29l-6.09 5.913c-.433.435-.64 1.034-.583 1.69.053.613.337 1.206.838 1.707.534.533 1.22.805 1.875.805.554 0 1.085-.196 1.483-.592l4.452-4.452-1.123-1.137c-.14-.142-.24-.31-.309-.49ZM19.27 4.185l-.357-.855-2.294 2.295c-.39.39-.733.588-1.019.588-.218 0-.44-.118-.691-.368l-.042-.04c-.373-.374-.662-.812.228-1.703l2.296-2.296-.855-.356c-1.743-.726-3.568-1.186-5.118.365L10 3.233c-1.44 1.442-1.937 3.08-1.472 4.703l1.43 1.46 1.119-1.118s.713.371 1.223.7l3.05 3.09c.747-.227 1.465-.672 2.139-1.347l1.415-1.418c1.553-1.55 1.094-3.376.366-5.118Z"/><path d="m17.604 15.815-5.632-5.707a1.887 1.887 0 0 0-.692-.44l-.332-.124-1.006 1.006L4.62 5.23l.492-.492a.619.619 0 0 0-.098-.958L2.136 1.89a.622.622 0 0 0-.78.08l-.985.986a.62.62 0 0 0-.08.78l1.89 2.877a.62.62 0 0 0 .958.099l.444-.444 5.321 5.32-1.008 1.01.126.332c.1.265.245.494.431.682l5.637 5.711c.37.371.88.575 1.434.575.659 0 1.323-.288 1.832-.797l.03-.03c.452-.451.729-1.029.78-1.626.055-.633-.146-1.213-.562-1.63ZM16.598 18.3l-.03.032c-.295.295-.676.465-1.044.465a.913.913 0 0 1-.654-.25l-5.633-5.708-.013-.013 1.954-1.955.008.008 5.636 5.711c.186.187.274.457.247.76-.03.34-.193.673-.47.95Z"/></g></svg>