<svg xmlns="http://www.w3.org/2000/svg" width="36" height="36" fill="none"><path fill="currentColor" d="M18 0 3.26 6.525v9.825q0 3.416 1.113 6.64 1.113 3.186 3.09 5.834 1.977 2.648 4.663 4.529 2.687 1.881 5.872 2.648 3.186-.768 5.872-2.648 2.687-1.881 4.663-4.529 1.977-2.648 3.09-5.834 1.113-3.224 1.113-6.64V6.525zm11.48 16.35q0 2.802-.883 5.373-.844 2.61-2.38 4.778-1.535 2.168-3.646 3.78-2.11 1.574-4.567 2.341-2.456-.768-4.567-2.341-2.11-1.612-3.646-3.78-1.535-2.168-2.38-4.778-.882-2.571-.882-5.373V8.674l11.48-5.104 11.48 5.104zm-19 .998L8.177 19.65l6.563 6.525 13.09-13.09-2.303-2.341-10.78 10.82z"/></svg>