<svg xmlns="http://www.w3.org/2000/svg" width="25" height="25" fill="none" viewBox="0 0 25 25"><g fill="currentColor"><path d="M16.711 9.697c-.025 0-2.13 1.35-6.315 4.052l.884 2.94.19-1.866c3.603-3.29 5.408-4.945 5.412-4.967a.27.27 0 0 0 .006-.044c0-.077-.059-.115-.177-.115Z"/><path d="M15.345 3.359H10.31c-4.081 0-7.396 3.28-7.396 7.318v4.981c0 4.039 3.315 7.318 7.396 7.318h5.035c4.082 0 7.397-3.28 7.397-7.318v-4.981c0-4.038-3.315-7.318-7.397-7.318Zm3.791 4.944-1.995 9.69c-.076.333-.278.5-.607.5a.565.565 0 0 1-.353-.129l-2.943-2.16-1.63 1.547a.426.426 0 0 1-.29.127c-.228 0-.38-.102-.455-.306L9.701 14.03l-2.88-.908c-.177-.06-.278-.188-.303-.384a.42.42 0 0 1 .29-.422c7.89-2.983 11.861-4.474 11.912-4.474a.437.437 0 0 1 .284.128.388.388 0 0 1 .132.332Z"/></g></svg>