<svg xmlns="http://www.w3.org/2000/svg" width="25" height="25" fill="none" viewBox="0 0 25 25"><g fill="currentColor"><path d="M13.18 7.714c-2.869 0-5.232 2.303-5.232 5.15 0 1.09.356 2.148 1.013 3.016l-.633 1.926 2.025-.628a5.226 5.226 0 0 0 2.869.838c2.869 0 5.231-2.303 5.231-5.151-.042-2.848-2.404-5.151-5.273-5.151Zm3.033 7.298c-.172.455-.86.77-1.336.766-1.96-.016-4.77-2.691-4.738-4.288a1.644 1.644 0 0 1 .505-1.169c.274-.264.919-.37 1.097.043.438 1.157.55 1.18.464 1.382a1.306 1.306 0 0 1-.38.502c-.445.323.808 1.388.994 1.528 1.16.871 1.326.525 1.396.45.415-.441.372-.6.549-.636.184-.038 1.428.64 1.433.642.245.155.092.555.016.78Z"/><path d="M15.57 3.244h-5.034c-4.082 0-7.397 3.28-7.397 7.319v4.98c0 4.04 3.315 7.319 7.397 7.319h5.034c4.082 0 7.397-3.28 7.397-7.318v-4.981c0-4.039-3.315-7.319-7.397-7.319ZM13.18 18.98a6.472 6.472 0 0 1-2.996-.754l-3.459 1.09 1.139-3.267a6.18 6.18 0 0 1-.886-3.141c0-3.392 2.784-6.114 6.202-6.114 3.417-.042 6.201 2.68 6.201 6.072s-2.784 6.114-6.201 6.114Z"/></g></svg>