<svg xmlns="http://www.w3.org/2000/svg" width="21" height="18" fill="none" viewBox="0 0 21 18"><path fill="#333" d="M19.875 3.243H6.594a.781.781 0 0 1 0-1.562h13.281a.781.781 0 1 1 0 1.562ZM3.469 3.243H1.125a.781.781 0 0 1 0-1.562h2.344a.781.781 0 0 1 0 1.562ZM14.406 9.493H1.125a.781.781 0 0 1 0-1.562h13.281a.781.781 0 1 1 0 1.562ZM6.594 15.743H1.125a.781.781 0 1 1 0-1.563h5.469a.781.781 0 0 1 0 1.563Z"/><path fill="#333" d="M5.031 4.806a2.344 2.344 0 1 1 0-4.688 2.344 2.344 0 0 1 0 4.688Zm0-3.125a.781.781 0 1 0 0 1.562.781.781 0 0 0 0-1.562ZM15.969 11.056a2.344 2.344 0 1 1 0-4.689 2.344 2.344 0 0 1 0 4.689Zm0-3.125a.781.781 0 1 0 0 1.562.781.781 0 0 0 0-1.562ZM8.156 17.305a2.344 2.344 0 1 1 0-4.687 2.344 2.344 0 0 1 0 4.687Zm0-3.124a.782.782 0 1 0 0 1.563.782.782 0 0 0 0-1.563Z"/><path fill="#333" d="M19.875 9.493h-2.344a.781.781 0 1 1 0-1.562h2.344a.781.781 0 1 1 0 1.562ZM19.875 15.743H9.719a.781.781 0 1 1 0-1.563h10.156a.781.781 0 0 1 0 1.563Z"/></svg>