<svg viewBox="0 0 51 53" fill="none" xmlns="http://www.w3.org/2000/svg">
<path d="M47.8873 26.8967C47.6764 26.4651 47.6764 25.97 47.8873 25.5384L49.843 21.5378C50.9318 19.3102 50.0691 16.6552 47.8789 15.4931L43.9453 13.406C43.5209 13.1809 43.23 12.7803 43.1469 12.3072L42.3776 7.92108C41.9492 5.47898 39.6902 3.83795 37.2357 4.18522L32.8266 4.8089C32.3507 4.87609 31.8802 4.72308 31.5349 4.38912L28.3345 1.29303C26.5524 -0.430959 23.7607 -0.431061 21.9788 1.29303L18.7782 4.38943C18.4329 4.72349 17.9623 4.87619 17.4865 4.80921L13.0774 4.18553C10.6221 3.83805 8.36391 5.47929 7.93553 7.92138L7.16622 12.3073C7.08316 12.7805 6.79221 13.181 6.36792 13.4062L2.43431 15.4934C0.244149 16.6553 -0.618562 19.3105 0.470272 21.5381L2.42581 25.5386C2.63678 25.9703 2.63678 26.4654 2.42581 26.8969L0.47017 30.8975C-0.618665 33.1251 0.244046 35.7801 2.43421 36.9421L6.36782 39.0293C6.79221 39.2544 7.08316 39.655 7.16622 40.128L7.93553 44.5142C8.32551 46.7373 10.2318 48.2964 12.4227 48.2962C12.6384 48.2962 12.8574 48.2811 13.0775 48.2499L17.4866 47.6263C17.9621 47.5588 18.433 47.7121 18.7783 48.046L21.9788 51.1421C22.8699 52.0042 24.013 52.4352 25.1566 52.4351C26.2998 52.435 27.4436 52.004 28.3344 51.1421L31.5349 48.046C31.8803 47.7121 32.3509 47.5595 32.8266 47.6263L37.2357 48.2499C39.6914 48.5973 41.9492 46.9562 42.3776 44.5141L43.147 40.1281C43.2301 39.655 43.521 39.2545 43.9453 39.0293L47.8789 36.9421C50.0691 35.7802 50.9318 33.125 49.843 30.8974L47.8873 26.8967ZM19.1081 12.6086C22.1652 12.6086 24.6525 15.0959 24.6525 18.1531C24.6525 21.2102 22.1652 23.6975 19.1081 23.6975C16.0509 23.6975 13.5636 21.2102 13.5636 18.1531C13.5636 15.0959 16.0509 12.6086 19.1081 12.6086ZM16.2463 37.2661C15.951 37.5614 15.564 37.7091 15.1771 37.7091C14.7902 37.7091 14.4031 37.5615 14.1079 37.2661C13.5174 36.6756 13.5174 35.7182 14.1079 35.1277L34.0667 15.1689C34.6571 14.5784 35.6147 14.5784 36.2052 15.1689C36.7957 15.7594 36.7957 16.7169 36.2052 17.3074L16.2463 37.2661ZM31.2049 39.8266C28.1477 39.8266 25.6604 37.3394 25.6604 34.2822C25.6604 31.225 28.1477 28.7378 31.2049 28.7378C34.262 28.7378 36.7493 31.225 36.7493 34.2822C36.7493 37.3394 34.262 39.8266 31.2049 39.8266Z" fill="#FFFEFA"/>
</svg>
