<svg xmlns="http://www.w3.org/2000/svg"><defs><style>.icon { display: none; }.icon:target { display: inline; }</style></defs><svg viewBox="0 0 18.749552 18.749334"><g id="cart" class="icon"><path fill="currentColor" d="m18.731 5.777-1.756 7.026c-.14.558-.638.947-1.213.947H4.932a1.25 1.25 0 0 1-1.242-1.105L2.424 2.5h-.861a.937.937 0 1 1 0-1.875h1.679c.469 0 .865.346.929.81L4.659 5h13.466c.406 0 .705.383.606.777ZM4.375 16.875c0 1.034.841 1.875 1.875 1.875a1.877 1.877 0 0 0 1.875-1.875A1.877 1.877 0 0 0 6.25 15a1.877 1.877 0 0 0-1.875 1.875ZM15.625 16.875A1.877 1.877 0 0 0 13.75 15a1.877 1.877 0 0 0-1.875 1.875c0 1.034.841 1.875 1.875 1.875a1.877 1.877 0 0 0 1.875-1.875Z"/></g></svg><svg viewBox="0 0 14.733021 11.990666"><g id="compare" class="icon"><path fill="currentColor" d="M14.328 11.18a.405.405 0 0 1 0 .81H1.361a.405.405 0 0 1 0-.81h12.967ZM2.982 3.886h3.647c.224 0 .405.182.405.406v6.078H2.576V4.292c0-.224.182-.406.406-.406ZM9.06.644h3.647c.224 0 .405.182.405.406v9.32H8.655V1.05c0-.224.181-.406.405-.406Z"/></g></svg><svg viewBox="0 0 20.656382 17.305992"><g id="filters" class="icon"><g fill="currentColor"><path d="M19.875 3.243H6.594a.781.781 0 0 1 0-1.562h13.281a.781.781 0 1 1 0 1.562ZM3.469 3.243H1.125a.781.781 0 0 1 0-1.562h2.344a.781.781 0 0 1 0 1.562ZM14.406 9.493H1.125a.781.781 0 0 1 0-1.562h13.281a.781.781 0 1 1 0 1.562ZM6.594 15.743H1.125a.781.781 0 1 1 0-1.563h5.469a.781.781 0 0 1 0 1.563Z"/><path d="M5.031 4.806a2.344 2.344 0 1 1 0-4.688 2.344 2.344 0 0 1 0 4.688Zm0-3.125a.781.781 0 1 0 0 1.562.781.781 0 0 0 0-1.562ZM15.969 11.056a2.344 2.344 0 1 1 0-4.689 2.344 2.344 0 0 1 0 4.689Zm0-3.125a.781.781 0 1 0 0 1.562.781.781 0 0 0 0-1.562ZM8.156 17.305a2.344 2.344 0 1 1 0-4.687 2.344 2.344 0 0 1 0 4.687Zm0-3.124a.782.782 0 1 0 0 1.563.782.782 0 0 0 0-1.563Z"/><path d="M19.875 9.493h-2.344a.781.781 0 1 1 0-1.562h2.344a.781.781 0 1 1 0 1.562ZM19.875 15.743H9.719a.781.781 0 1 1 0-1.563h10.156a.781.781 0 0 1 0 1.563Z"/></g></g></svg><svg viewBox="0 0 14.042667 11.866666"><g id="heart" class="icon"><path fill="currentColor" d="M10.385.446c-1.632 0-2.68 1.068-3.23 2.028C6.607 1.514 5.558.446 3.926.446c-2.07 0-3.66 1.586-3.66 3.69 0 2.281 1.99 3.835 4.963 6.187 1.455 1.15 1.549 1.238 1.926 1.542.309-.248.48-.397 1.927-1.542 2.972-2.352 4.962-3.906 4.962-6.187 0-2.103-1.588-3.69-3.66-3.69Z"/></g></svg></svg>