<svg width="0" height="0" class="hidden">
  <symbol xmlns="http://www.w3.org/2000/svg" fill="none" viewBox="0 0 20 20" id="payments">
    <path fill="currentColor" d="M.833 6.667A4.167 4.167 0 0 1 5 2.5h10a4.166 4.166 0 0 1 4.167 4.167H.833Zm18.334 1.666v5A4.166 4.166 0 0 1 15 17.5H5a4.167 4.167 0 0 1-4.167-4.167v-5h18.334Zm-3.334 5A.833.833 0 0 0 15 12.5h-3.333a.833.833 0 0 0 0 1.667H15a.833.833 0 0 0 .833-.834Z"></path>
  </symbol>
  <symbol xmlns="http://www.w3.org/2000/svg" fill="none" viewBox="0 0 20 20" id="phone">
    <path fill="currentColor" d="M14.393 20c-3.506 0-7.25-1.288-10.177-4.216A14.353 14.353 0 0 1 0 5.607 5.604 5.604 0 0 1 5.607 0c.24 0 .455.146.544.368l2.51 6.276c.12.3-.026.642-.326.762L5.577 8.509a6.327 6.327 0 0 0 5.914 5.914l1.103-2.758c.12-.3.46-.446.762-.326l6.276 2.51a.586.586 0 0 1 .368.544A5.604 5.604 0 0 1 14.393 20Z"></path>
  </symbol>
  <symbol xmlns="http://www.w3.org/2000/svg" fill="none" viewBox="0 0 20 20" id="present">
    <path fill="currentColor" d="M1.667 12.5h7.5V20H5.833a4.167 4.167 0 0 1-4.166-4.167V12.5ZM20 9.167a1.667 1.667 0 0 1-1.667 1.666h-7.5V7.464c-.28.022-.559.036-.833.036-.274 0-.553-.014-.833-.036v3.37h-7.5A1.667 1.667 0 0 1 0 9.166a3.333 3.333 0 0 1 3.333-3.334h1.449A4.28 4.28 0 0 1 3.333 2.5.833.833 0 0 1 5 2.5c0 2.185 1.976 2.942 3.478 3.2A7.777 7.777 0 0 1 7.5 2.5a2.5 2.5 0 1 1 5 0 7.777 7.777 0 0 1-.978 3.2C13.024 5.443 15 4.686 15 2.5a.833.833 0 1 1 1.667 0 4.281 4.281 0 0 1-1.449 3.333h1.449A3.333 3.333 0 0 1 20 9.167ZM9.167 2.5c.1.886.384 1.74.833 2.51.449-.77.733-1.624.833-2.51a.834.834 0 0 0-1.666 0ZM10.833 20h3.334a4.167 4.167 0 0 0 4.166-4.167V12.5h-7.5V20Z"></path>
  </symbol>
  <symbol xmlns="http://www.w3.org/2000/svg" fill="none" viewBox="0 0 20 21" id="repair">
    <g fill="currentColor">
      <path d="m8.536 12.734.15-.148-.004-.004c-.194-.196 1.095-1.506 1.095-1.506L7.993 9.29l-6.09 5.913c-.433.435-.64 1.034-.583 1.69.053.613.337 1.206.838 1.707.534.533 1.22.805 1.875.805.554 0 1.085-.196 1.483-.592l4.452-4.452-1.123-1.137c-.14-.142-.24-.31-.309-.49ZM19.27 4.185l-.357-.855-2.294 2.295c-.39.39-.733.588-1.019.588-.218 0-.44-.118-.691-.368l-.042-.04c-.373-.374-.662-.812.228-1.703l2.296-2.296-.855-.356c-1.743-.726-3.568-1.186-5.118.365L10 3.233c-1.44 1.442-1.937 3.08-1.472 4.703l1.43 1.46 1.119-1.118s.713.371 1.223.7l3.05 3.09c.747-.227 1.465-.672 2.139-1.347l1.415-1.418c1.553-1.55 1.094-3.376.366-5.118Z"></path>
      <path d="m17.604 15.815-5.632-5.707a1.887 1.887 0 0 0-.692-.44l-.332-.124-1.006 1.006L4.62 5.23l.492-.492a.619.619 0 0 0-.098-.958L2.136 1.89a.622.622 0 0 0-.78.08l-.985.986a.62.62 0 0 0-.08.78l1.89 2.877a.62.62 0 0 0 .958.099l.444-.444 5.321 5.32-1.008 1.01.126.332c.1.265.245.494.431.682l5.637 5.711c.37.371.88.575 1.434.575.659 0 1.323-.288 1.832-.797l.03-.03c.452-.451.729-1.029.78-1.626.055-.633-.146-1.213-.562-1.63ZM16.598 18.3l-.03.032c-.295.295-.676.465-1.044.465a.913.913 0 0 1-.654-.25l-5.633-5.708-.013-.013 1.954-1.955.008.008 5.636 5.711c.186.187.274.457.247.76-.03.34-.193.673-.47.95Z"></path>
    </g>
  </symbol>
  <symbol xmlns="http://www.w3.org/2000/svg" fill="none" viewBox="0 0 36 36" id="shield">
    <path fill="currentColor" d="M18 0 3.26 6.525v9.825q0 3.416 1.113 6.64 1.113 3.186 3.09 5.834 1.977 2.648 4.663 4.529 2.687 1.881 5.872 2.648 3.186-.768 5.872-2.648 2.687-1.881 4.663-4.529 1.977-2.648 3.09-5.834 1.113-3.224 1.113-6.64V6.525zm11.48 16.35q0 2.802-.883 5.373-.844 2.61-2.38 4.778-1.535 2.168-3.646 3.78-2.11 1.574-4.567 2.341-2.456-.768-4.567-2.341-2.11-1.612-3.646-3.78-1.535-2.168-2.38-4.778-.882-2.571-.882-5.373V8.674l11.48-5.104 11.48 5.104zm-19 .998L8.177 19.65l6.563 6.525 13.09-13.09-2.303-2.341-10.78 10.82z"></path>
  </symbol>
  <symbol xmlns="http://www.w3.org/2000/svg" fill="none" viewBox="0 0 20 21" id="calculator">
    <path fill="currentColor" d="M14.167 6.333a.834.834 0 0 1-.833.834H6.667a.833.833 0 0 1 0-1.667h6.667a.833.833 0 0 1 .833.833Zm5-1.666v11.666A4.172 4.172 0 0 1 15 20.5H5a4.172 4.172 0 0 1-4.167-4.167V4.667A4.172 4.172 0 0 1 5 .5h10a4.172 4.172 0 0 1 4.167 4.167ZM5.833 15.5a.834.834 0 1 0-1.667 0 .834.834 0 0 0 1.667 0Zm0-3.333a.833.833 0 1 0-1.666 0 .833.833 0 0 0 1.667 0ZM9.168 15.5a.834.834 0 1 0-1.667 0 .834.834 0 0 0 1.667 0Zm0-3.333a.833.833 0 1 0-1.667 0 .833.833 0 0 0 1.667 0Zm6.667 3.333a.833.833 0 0 0-.834-.833h-3.333a.834.834 0 0 0 0 1.666H15a.834.834 0 0 0 .834-.833ZM11.667 13a.834.834 0 1 0 0-1.668.834.834 0 0 0 0 1.668Zm4.167-.833a.834.834 0 1 0-1.668 0 .834.834 0 0 0 1.668 0Zm0-5.834a2.5 2.5 0 0 0-2.5-2.5H6.667a2.5 2.5 0 0 0 0 5h6.667a2.5 2.5 0 0 0 2.5-2.5Z"></path>
  </symbol>
  <symbol xmlns="http://www.w3.org/2000/svg" fill="none" viewBox="0 0 20 20" id="cart">
    <path fill="currentColor" d="m18.731 5.777-1.756 7.026c-.14.558-.638.947-1.213.947H4.932a1.25 1.25 0 0 1-1.242-1.105L2.424 2.5h-.861a.937.937 0 1 1 0-1.875h1.679c.469 0 .865.346.929.81L4.659 5h13.466c.406 0 .705.383.606.777ZM4.375 16.875c0 1.034.841 1.875 1.875 1.875a1.877 1.877 0 0 0 1.875-1.875A1.877 1.877 0 0 0 6.25 15a1.877 1.877 0 0 0-1.875 1.875ZM15.625 16.875A1.877 1.877 0 0 0 13.75 15a1.877 1.877 0 0 0-1.875 1.875c0 1.034.841 1.875 1.875 1.875a1.877 1.877 0 0 0 1.875-1.875Z"></path>
  </symbol>
  <symbol xmlns="http://www.w3.org/2000/svg" fill="none" viewBox="0 0 10 10" id="chevron-down">
    <path fill="currentColor" d="M5.357 7.607 9.852 3.11a.504.504 0 1 0-.713-.715L5 6.535.862 2.395a.504.504 0 1 0-.714.715l4.495 4.497a.51.51 0 0 0 .714 0Z"></path>
  </symbol>
  <symbol xmlns="http://www.w3.org/2000/svg" fill="none" viewBox="0 0 18 18" id="close">
    <path fill="#DEDEDE" d="m4.357 3 10.854 10.853-1.143 1.143L3.214 4.142z"></path>
    <path fill="#DEDEDE" d="M3 13.857 13.853 3.004l1.143 1.142L4.142 15z"></path>
    <circle cx="9" cy="9" r="9" fill="#D75150"></circle>
    <path fill="#fff" d="M5.287 5.287a.75.75 0 0 1 1.061 0L9 7.94l2.652-2.652a.75.75 0 0 1 1.06 1.061L10.06 9l2.652 2.652a.75.75 0 0 1-1.06 1.06L9 10.06l-2.652 2.652a.75.75 0 0 1-1.06-1.06L7.938 9 5.287 6.348a.75.75 0 0 1 0-1.06Z"></path>
  </symbol>
  <symbol xmlns="http://www.w3.org/2000/svg" fill="none" viewBox="0 0 15 12" id="compare">
    <path fill="currentColor" d="M14.328 11.18a.405.405 0 0 1 0 .81H1.361a.405.405 0 0 1 0-.81h12.967ZM2.982 3.886h3.647c.224 0 .405.182.405.406v6.078H2.576V4.292c0-.224.182-.406.406-.406ZM9.06.644h3.647c.224 0 .405.182.405.406v9.32H8.655V1.05c0-.224.181-.406.405-.406Z"></path>
  </symbol>
  <symbol xmlns="http://www.w3.org/2000/svg" fill="none" viewBox="0 0 20 20" id="delivery">
    <path fill="currentColor" d="M12.5 15H3.333A3.333 3.333 0 0 1 0 11.665V5A4.167 4.167 0 0 1 4.167.833h4.166A4.167 4.167 0 0 1 12.5 4.999v10ZM20 9.165v-.833a4.167 4.167 0 0 0-4.167-4.167h-1.666v5H20Zm-5.833 1.667v4.166h2.5A3.333 3.333 0 0 0 20 11.666v-.833h-5.833ZM3.382 16.666c-.03.137-.047.277-.049.417a2.083 2.083 0 1 0 4.167 0 2.02 2.02 0 0 0-.048-.417h-4.07Zm9.166 0a2.02 2.02 0 0 0-.048.417 2.083 2.083 0 1 0 4.167 0 2.014 2.014 0 0 0-.049-.417h-4.07Z"></path>
  </symbol>
  <symbol xmlns="http://www.w3.org/2000/svg" fill="none" viewBox="0 0 24 24" id="documents">
    <g clip-path="url(#clip0_892_5262)">
      <path fill="#FFD600" d="M16.86 5H12V.016L16.86 5ZM10 7V0H5a3 3 0 0 0-3 3v16h15V7h-7Zm9 .01v14.028H7V24h15V10l-3-2.99Z"></path>
    </g>
    <defs>
      <clipPath id="clip0_892_5262">
        <path fill="#fff" d="M0 0h24v24H0z"></path>
      </clipPath>
    </defs>
  </symbol>
  <symbol xmlns="http://www.w3.org/2000/svg" fill="none" viewBox="0 0 21 18" id="filters">
    <g fill="currentColor">
      <path d="M19.875 3.243H6.594a.781.781 0 0 1 0-1.562h13.281a.781.781 0 1 1 0 1.562ZM3.469 3.243H1.125a.781.781 0 0 1 0-1.562h2.344a.781.781 0 0 1 0 1.562ZM14.406 9.493H1.125a.781.781 0 0 1 0-1.562h13.281a.781.781 0 1 1 0 1.562ZM6.594 15.743H1.125a.781.781 0 1 1 0-1.563h5.469a.781.781 0 0 1 0 1.563Z"></path>
      <path d="M5.031 4.806a2.344 2.344 0 1 1 0-4.688 2.344 2.344 0 0 1 0 4.688Zm0-3.125a.781.781 0 1 0 0 1.562.781.781 0 0 0 0-1.562ZM15.969 11.056a2.344 2.344 0 1 1 0-4.689 2.344 2.344 0 0 1 0 4.689Zm0-3.125a.781.781 0 1 0 0 1.562.781.781 0 0 0 0-1.562ZM8.156 17.305a2.344 2.344 0 1 1 0-4.687 2.344 2.344 0 0 1 0 4.687Zm0-3.124a.782.782 0 1 0 0 1.563.782.782 0 0 0 0-1.563Z"></path>
      <path d="M19.875 9.493h-2.344a.781.781 0 1 1 0-1.562h2.344a.781.781 0 1 1 0 1.562ZM19.875 15.743H9.719a.781.781 0 1 1 0-1.563h10.156a.781.781 0 0 1 0 1.563Z"></path>
    </g>
  </symbol>
  <symbol xmlns="http://www.w3.org/2000/svg" fill="none" viewBox="0 0 20 21" id="gear">
    <path fill="currentColor" d="M19.927 8.212a.555.555 0 0 0-.055-.418l-2.55-4.412a.551.551 0 0 0-.753-.2L14.43 4.417a7.427 7.427 0 0 0-1.259-.727V1.218a.55.55 0 0 0-.55-.55H7.523a.55.55 0 0 0-.55.55V3.69c-.416.19-.813.416-1.188.678l-2.127-1.26a.552.552 0 0 0-.755.193L.305 7.685a.55.55 0 0 0 .193.754l2.128 1.26c-.034.287-.05.554-.05.812 0 .228.013.465.041.727L.475 12.476a.55.55 0 0 0-.202.752l2.55 4.412a.55.55 0 0 0 .752.201l2.14-1.235c.394.282.815.525 1.258.726v2.472c0 .304.246.55.55.55h5.098a.55.55 0 0 0 .55-.55v-2.471a7.458 7.458 0 0 0 1.188-.679l2.128 1.26a.55.55 0 0 0 .754-.192l2.599-4.384a.55.55 0 0 0-.194-.754l-2.127-1.26a6.82 6.82 0 0 0 .05-.812c0-.231-.013-.471-.04-.728l2.141-1.237a.551.551 0 0 0 .257-.335Zm-6.907 2.299a2.952 2.952 0 0 1-2.948 2.948 2.951 2.951 0 0 1-2.948-2.948 2.95 2.95 0 0 1 2.948-2.947 2.951 2.951 0 0 1 2.948 2.947Z"></path>
  </symbol>
  <symbol xmlns="http://www.w3.org/2000/svg" fill="none" viewBox="0 0 15 12" id="heart">
    <path fill="currentColor" d="M10.385.446c-1.632 0-2.68 1.068-3.23 2.028C6.607 1.514 5.558.446 3.926.446c-2.07 0-3.66 1.586-3.66 3.69 0 2.281 1.99 3.835 4.963 6.187 1.455 1.15 1.549 1.238 1.926 1.542.309-.248.48-.397 1.927-1.542 2.972-2.352 4.962-3.906 4.962-6.187 0-2.103-1.588-3.69-3.66-3.69Z"></path>
  </symbol>
  <symbol xmlns="http://www.w3.org/2000/svg" fill="none" viewBox="0 0 20 20" id="info">
    <path fill="#FFD600" d="M10.697.023A10 10 0 0 0 .024 10.713C.391 16.005 5.068 20 10.902 20h4.931A4.172 4.172 0 0 0 20 15.833v-5.55A10.174 10.174 0 0 0 10.697.023ZM10 4.167a1.25 1.25 0 1 1 0 2.5 1.25 1.25 0 0 1 0-2.5ZM11.666 15A.833.833 0 1 1 10 15v-5h-.834a.833.833 0 0 1 0-1.667H10A1.667 1.667 0 0 1 11.666 10v5Z"></path>
  </symbol>
  <symbol xmlns="http://www.w3.org/2000/svg" fill="none" viewBox="0 0 36 36" id="package">
    <path fill="currentColor" d="m35.06 4.453-2.766-3.375q-.422-.469-1.008-.773T29.997 0h-24q-.703 0-1.312.305-.61.304-.984.773L.935 4.453q-.47.516-.703 1.172-.235.656-.235 1.359v25.03q0 1.641 1.172 2.812 1.172 1.172 2.812 1.172h28.03q1.641 0 2.812-1.172 1.172-1.172 1.172-2.812V6.984q0-.703-.234-1.359-.235-.656-.703-1.172zM6.47 3.984h23.06l1.594 1.97H4.874zm-2.484 28.03V9.984h28.03v22.03zm16.92-18h-5.812v6H9.985l8.016 7.97 8.016-7.97h-5.109z"></path>
  </symbol>
</svg>