<svg width="0" height="0" class="hidden">
  <symbol xmlns="http://www.w3.org/2000/svg" fill="none" viewBox="0 0 36 36" id="package">
    <path fill="currentColor" d="m35.06 4.453-2.766-3.375q-.422-.469-1.008-.773T29.997 0h-24q-.703 0-1.312.305-.61.304-.984.773L.935 4.453q-.47.516-.703 1.172-.235.656-.235 1.359v25.03q0 1.641 1.172 2.812 1.172 1.172 2.812 1.172h28.03q1.641 0 2.812-1.172 1.172-1.172 1.172-2.812V6.984q0-.703-.234-1.359-.235-.656-.703-1.172zM6.47 3.984h23.06l1.594 1.97H4.874zm-2.484 28.03V9.984h28.03v22.03zm16.92-18h-5.812v6H9.985l8.016 7.97 8.016-7.97h-5.109z"></path>
  </symbol>
  <symbol xmlns="http://www.w3.org/2000/svg" fill="none" viewBox="0 0 36 36" id="shield">
    <path fill="currentColor" d="M18 0 3.26 6.525v9.825q0 3.416 1.113 6.64 1.113 3.186 3.09 5.834 1.977 2.648 4.663 4.529 2.687 1.881 5.872 2.648 3.186-.768 5.872-2.648 2.687-1.881 4.663-4.529 1.977-2.648 3.09-5.834 1.113-3.224 1.113-6.64V6.525zm11.48 16.35q0 2.802-.883 5.373-.844 2.61-2.38 4.778-1.535 2.168-3.646 3.78-2.11 1.574-4.567 2.341-2.456-.768-4.567-2.341-2.11-1.612-3.646-3.78-1.535-2.168-2.38-4.778-.882-2.571-.882-5.373V8.674l11.48-5.104 11.48 5.104zm-19 .998L8.177 19.65l6.563 6.525 13.09-13.09-2.303-2.341-10.78 10.82z"></path>
  </symbol>
  <symbol xmlns="http://www.w3.org/2000/svg" fill="none" viewBox="0 0 20 21" id="repair">
    <g fill="currentColor">
      <path d="m8.536 12.734.15-.148-.004-.004c-.194-.196 1.095-1.506 1.095-1.506L7.993 9.29l-6.09 5.913c-.433.435-.64 1.034-.583 1.69.053.613.337 1.206.838 1.707.534.533 1.22.805 1.875.805.554 0 1.085-.196 1.483-.592l4.452-4.452-1.123-1.137c-.14-.142-.24-.31-.309-.49ZM19.27 4.185l-.357-.855-2.294 2.295c-.39.39-.733.588-1.019.588-.218 0-.44-.118-.691-.368l-.042-.04c-.373-.374-.662-.812.228-1.703l2.296-2.296-.855-.356c-1.743-.726-3.568-1.186-5.118.365L10 3.233c-1.44 1.442-1.937 3.08-1.472 4.703l1.43 1.46 1.119-1.118s.713.371 1.223.7l3.05 3.09c.747-.227 1.465-.672 2.139-1.347l1.415-1.418c1.553-1.55 1.094-3.376.366-5.118Z"></path>
      <path d="m17.604 15.815-5.632-5.707a1.887 1.887 0 0 0-.692-.44l-.332-.124-1.006 1.006L4.62 5.23l.492-.492a.619.619 0 0 0-.098-.958L2.136 1.89a.622.622 0 0 0-.78.08l-.985.986a.62.62 0 0 0-.08.78l1.89 2.877a.62.62 0 0 0 .958.099l.444-.444 5.321 5.32-1.008 1.01.126.332c.1.265.245.494.431.682l5.637 5.711c.37.371.88.575 1.434.575.659 0 1.323-.288 1.832-.797l.03-.03c.452-.451.729-1.029.78-1.626.055-.633-.146-1.213-.562-1.63ZM16.598 18.3l-.03.032c-.295.295-.676.465-1.044.465a.913.913 0 0 1-.654-.25l-5.633-5.708-.013-.013 1.954-1.955.008.008 5.636 5.711c.186.187.274.457.247.76-.03.34-.193.673-.47.95Z"></path>
    </g>
  </symbol>
  <symbol xmlns="http://www.w3.org/2000/svg" fill="none" viewBox="0 0 20 20" id="delivery">
    <path fill="currentColor" d="M12.5 15H3.333A3.333 3.333 0 0 1 0 11.665V5A4.167 4.167 0 0 1 4.167.833h4.166A4.167 4.167 0 0 1 12.5 4.999v10ZM20 9.165v-.833a4.167 4.167 0 0 0-4.167-4.167h-1.666v5H20Zm-5.833 1.667v4.166h2.5A3.333 3.333 0 0 0 20 11.666v-.833h-5.833ZM3.382 16.666c-.03.137-.047.277-.049.417a2.083 2.083 0 1 0 4.167 0 2.02 2.02 0 0 0-.048-.417h-4.07Zm9.166 0a2.02 2.02 0 0 0-.048.417 2.083 2.083 0 1 0 4.167 0 2.014 2.014 0 0 0-.049-.417h-4.07Z"></path>
  </symbol>
  <symbol xmlns="http://www.w3.org/2000/svg" fill="none" viewBox="0 0 10 10" id="chevron-down">
    <path fill="currentColor" d="M5.357 7.607 9.852 3.11a.504.504 0 1 0-.713-.715L5 6.535.862 2.395a.504.504 0 1 0-.714.715l4.495 4.497a.51.51 0 0 0 .714 0Z"></path>
  </symbol>
  <symbol xmlns="http://www.w3.org/2000/svg" fill="none" viewBox="0 0 20 20" id="payments">
    <path fill="currentColor" d="M.833 6.667A4.167 4.167 0 0 1 5 2.5h10a4.166 4.166 0 0 1 4.167 4.167H.833Zm18.334 1.666v5A4.166 4.166 0 0 1 15 17.5H5a4.167 4.167 0 0 1-4.167-4.167v-5h18.334Zm-3.334 5A.833.833 0 0 0 15 12.5h-3.333a.833.833 0 0 0 0 1.667H15a.833.833 0 0 0 .833-.834Z"></path>
  </symbol>
  <symbol xmlns="http://www.w3.org/2000/svg" fill="none" viewBox="0 0 20 21" id="gear">
    <path fill="currentColor" d="M19.927 8.212a.555.555 0 0 0-.055-.418l-2.55-4.412a.551.551 0 0 0-.753-.2L14.43 4.417a7.427 7.427 0 0 0-1.259-.727V1.218a.55.55 0 0 0-.55-.55H7.523a.55.55 0 0 0-.55.55V3.69c-.416.19-.813.416-1.188.678l-2.127-1.26a.552.552 0 0 0-.755.193L.305 7.685a.55.55 0 0 0 .193.754l2.128 1.26c-.034.287-.05.554-.05.812 0 .228.013.465.041.727L.475 12.476a.55.55 0 0 0-.202.752l2.55 4.412a.55.55 0 0 0 .752.201l2.14-1.235c.394.282.815.525 1.258.726v2.472c0 .304.246.55.55.55h5.098a.55.55 0 0 0 .55-.55v-2.471a7.458 7.458 0 0 0 1.188-.679l2.128 1.26a.55.55 0 0 0 .754-.192l2.599-4.384a.55.55 0 0 0-.194-.754l-2.127-1.26a6.82 6.82 0 0 0 .05-.812c0-.231-.013-.471-.04-.728l2.141-1.237a.551.551 0 0 0 .257-.335Zm-6.907 2.299a2.952 2.952 0 0 1-2.948 2.948 2.951 2.951 0 0 1-2.948-2.948 2.95 2.95 0 0 1 2.948-2.947 2.951 2.951 0 0 1 2.948 2.947Z"></path>
  </symbol>
  <symbol xmlns="http://www.w3.org/2000/svg" fill="none" viewBox="0 0 20 21" id="calculator">
    <path fill="currentColor" d="M14.167 6.333a.834.834 0 0 1-.833.834H6.667a.833.833 0 0 1 0-1.667h6.667a.833.833 0 0 1 .833.833Zm5-1.666v11.666A4.172 4.172 0 0 1 15 20.5H5a4.172 4.172 0 0 1-4.167-4.167V4.667A4.172 4.172 0 0 1 5 .5h10a4.172 4.172 0 0 1 4.167 4.167ZM5.833 15.5a.834.834 0 1 0-1.667 0 .834.834 0 0 0 1.667 0Zm0-3.333a.833.833 0 1 0-1.666 0 .833.833 0 0 0 1.667 0ZM9.168 15.5a.834.834 0 1 0-1.667 0 .834.834 0 0 0 1.667 0Zm0-3.333a.833.833 0 1 0-1.667 0 .833.833 0 0 0 1.667 0Zm6.667 3.333a.833.833 0 0 0-.834-.833h-3.333a.834.834 0 0 0 0 1.666H15a.834.834 0 0 0 .834-.833ZM11.667 13a.834.834 0 1 0 0-1.668.834.834 0 0 0 0 1.668Zm4.167-.833a.834.834 0 1 0-1.668 0 .834.834 0 0 0 1.668 0Zm0-5.834a2.5 2.5 0 0 0-2.5-2.5H6.667a2.5 2.5 0 0 0 0 5h6.667a2.5 2.5 0 0 0 2.5-2.5Z"></path>
  </symbol>
  <symbol xmlns="http://www.w3.org/2000/svg" fill="none" viewBox="0 0 15 12" id="heart">
    <path fill="currentColor" d="M10.385.446c-1.632 0-2.68 1.068-3.23 2.028C6.607 1.514 5.558.446 3.926.446c-2.07 0-3.66 1.586-3.66 3.69 0 2.281 1.99 3.835 4.963 6.187 1.455 1.15 1.549 1.238 1.926 1.542.309-.248.48-.397 1.927-1.542 2.972-2.352 4.962-3.906 4.962-6.187 0-2.103-1.588-3.69-3.66-3.69Z"></path>
  </symbol>
  <symbol xmlns="http://www.w3.org/2000/svg" fill="none" viewBox="0 0 21 18" id="filters">
    <g fill="currentColor">
      <path d="M19.875 3.243H6.594a.781.781 0 0 1 0-1.562h13.281a.781.781 0 1 1 0 1.562ZM3.469 3.243H1.125a.781.781 0 0 1 0-1.562h2.344a.781.781 0 0 1 0 1.562ZM14.406 9.493H1.125a.781.781 0 0 1 0-1.562h13.281a.781.781 0 1 1 0 1.562ZM6.594 15.743H1.125a.781.781 0 1 1 0-1.563h5.469a.781.781 0 0 1 0 1.563Z"></path>
      <path d="M5.031 4.806a2.344 2.344 0 1 1 0-4.688 2.344 2.344 0 0 1 0 4.688Zm0-3.125a.781.781 0 1 0 0 1.562.781.781 0 0 0 0-1.562ZM15.969 11.056a2.344 2.344 0 1 1 0-4.689 2.344 2.344 0 0 1 0 4.689Zm0-3.125a.781.781 0 1 0 0 1.562.781.781 0 0 0 0-1.562ZM8.156 17.305a2.344 2.344 0 1 1 0-4.687 2.344 2.344 0 0 1 0 4.687Zm0-3.124a.782.782 0 1 0 0 1.563.782.782 0 0 0 0-1.563Z"></path>
      <path d="M19.875 9.493h-2.344a.781.781 0 1 1 0-1.562h2.344a.781.781 0 1 1 0 1.562ZM19.875 15.743H9.719a.781.781 0 1 1 0-1.563h10.156a.781.781 0 0 1 0 1.563Z"></path>
    </g>
  </symbol>
  <symbol xmlns="http://www.w3.org/2000/svg" fill="none" viewBox="0 0 15 12" id="compare">
    <path fill="currentColor" d="M14.328 11.18a.405.405 0 0 1 0 .81H1.361a.405.405 0 0 1 0-.81h12.967ZM2.982 3.886h3.647c.224 0 .405.182.405.406v6.078H2.576V4.292c0-.224.182-.406.406-.406ZM9.06.644h3.647c.224 0 .405.182.405.406v9.32H8.655V1.05c0-.224.181-.406.405-.406Z"></path>
  </symbol>
  <symbol xmlns="http://www.w3.org/2000/svg" fill="none" viewBox="0 0 20 20" id="cart">
    <path fill="currentColor" d="m18.731 5.777-1.756 7.026c-.14.558-.638.947-1.213.947H4.932a1.25 1.25 0 0 1-1.242-1.105L2.424 2.5h-.861a.937.937 0 1 1 0-1.875h1.679c.469 0 .865.346.929.81L4.659 5h13.466c.406 0 .705.383.606.777ZM4.375 16.875c0 1.034.841 1.875 1.875 1.875a1.877 1.877 0 0 0 1.875-1.875A1.877 1.877 0 0 0 6.25 15a1.877 1.877 0 0 0-1.875 1.875ZM15.625 16.875A1.877 1.877 0 0 0 13.75 15a1.877 1.877 0 0 0-1.875 1.875c0 1.034.841 1.875 1.875 1.875a1.877 1.877 0 0 0 1.875-1.875Z"></path>
  </symbol>
  <symbol xmlns="http://www.w3.org/2000/svg" fill="none" viewBox="0 0 20 20" id="location">
    <g fill="currentColor">
      <path d="M10 0C6.006 0 2.757 3.25 2.757 7.243c0 4.957 6.482 12.233 6.758 12.54.259.29.711.289.97 0 .276-.307 6.758-7.583 6.758-12.54C17.243 3.25 13.993 0 10 0Zm0 18.349c-2.182-2.591-5.939-7.704-5.939-11.106A5.946 5.946 0 0 1 10 1.304a5.946 5.946 0 0 1 5.939 5.94c0 3.401-3.757 8.513-5.939 11.105Z"></path>
      <path d="M10 3.6a3.648 3.648 0 0 0-3.644 3.643A3.648 3.648 0 0 0 10 10.888a3.648 3.648 0 0 0 3.644-3.645A3.648 3.648 0 0 0 10 3.6Zm0 5.983c-1.29 0-2.34-1.05-2.34-2.34 0-1.29 1.05-2.34 2.34-2.34 1.29 0 2.34 1.05 2.34 2.34 0 1.29-1.05 2.34-2.34 2.34Z"></path>
    </g>
  </symbol>
  <symbol xmlns="http://www.w3.org/2000/svg" fill="none" viewBox="0 0 20 20" id="email">
    <path fill="currentColor" d="M18.242 2.383H1.758A1.76 1.76 0 0 0 0 4.14v11.718a1.76 1.76 0 0 0 1.758 1.758h16.484A1.76 1.76 0 0 0 20 15.86V4.141a1.76 1.76 0 0 0-1.758-1.758ZM18 3.555l-7.963 7.962-8.03-7.962H18ZM1.172 15.617V4.377l5.644 5.596-5.644 5.644Zm.829.828 5.647-5.647 1.979 1.962c.229.227.598.226.826-.002l1.93-1.93L18 16.446H2Zm16.827-.828L13.211 10l5.617-5.617v11.234Z"></path>
  </symbol>
  <symbol xmlns="http://www.w3.org/2000/svg" fill="none" viewBox="0 0 20 20" id="magnifier">
    <g fill="currentColor">
      <path d="M8.808 0C3.95 0 0 3.951 0 8.808c0 4.856 3.951 8.807 8.808 8.807 4.856 0 8.807-3.95 8.807-8.807S13.665 0 8.808 0Zm0 15.99c-3.96 0-7.182-3.223-7.182-7.182 0-3.96 3.222-7.182 7.182-7.182 3.96 0 7.181 3.222 7.181 7.182 0 3.96-3.222 7.181-7.181 7.181Z"></path>
      <path d="M19.762 18.612 15.1 13.951a.812.812 0 1 0-1.15 1.15l4.662 4.66a.81.81 0 0 0 1.15 0 .813.813 0 0 0 0-1.149Z"></path>
    </g>
  </symbol>
  <symbol xmlns="http://www.w3.org/2000/svg" fill="none" viewBox="0 0 25 25" id="telegram">
    <g fill="currentColor">
      <path d="M16.711 9.697c-.025 0-2.13 1.35-6.315 4.052l.884 2.94.19-1.866c3.603-3.29 5.408-4.945 5.412-4.967a.27.27 0 0 0 .006-.044c0-.077-.059-.115-.177-.115Z"></path>
      <path d="M15.345 3.359H10.31c-4.081 0-7.396 3.28-7.396 7.318v4.981c0 4.039 3.315 7.318 7.396 7.318h5.035c4.082 0 7.397-3.28 7.397-7.318v-4.981c0-4.038-3.315-7.318-7.397-7.318Zm3.791 4.944-1.995 9.69c-.076.333-.278.5-.607.5a.565.565 0 0 1-.353-.129l-2.943-2.16-1.63 1.547a.426.426 0 0 1-.29.127c-.228 0-.38-.102-.455-.306L9.701 14.03l-2.88-.908c-.177-.06-.278-.188-.303-.384a.42.42 0 0 1 .29-.422c7.89-2.983 11.861-4.474 11.912-4.474a.437.437 0 0 1 .284.128.388.388 0 0 1 .132.332Z"></path>
    </g>
  </symbol>
  <symbol xmlns="http://www.w3.org/2000/svg" fill="none" viewBox="0 0 25 25" id="whatsapp">
    <g fill="currentColor">
      <path d="M13.18 7.714c-2.869 0-5.232 2.303-5.232 5.15 0 1.09.356 2.148 1.013 3.016l-.633 1.926 2.025-.628a5.226 5.226 0 0 0 2.869.838c2.869 0 5.231-2.303 5.231-5.151-.042-2.848-2.404-5.151-5.273-5.151Zm3.033 7.298c-.172.455-.86.77-1.336.766-1.96-.016-4.77-2.691-4.738-4.288a1.644 1.644 0 0 1 .505-1.169c.274-.264.919-.37 1.097.043.438 1.157.55 1.18.464 1.382a1.306 1.306 0 0 1-.38.502c-.445.323.808 1.388.994 1.528 1.16.871 1.326.525 1.396.45.415-.441.372-.6.549-.636.184-.038 1.428.64 1.433.642.245.155.092.555.016.78Z"></path>
      <path d="M15.57 3.244h-5.034c-4.082 0-7.397 3.28-7.397 7.319v4.98c0 4.04 3.315 7.319 7.397 7.319h5.034c4.082 0 7.397-3.28 7.397-7.318v-4.981c0-4.039-3.315-7.319-7.397-7.319ZM13.18 18.98a6.472 6.472 0 0 1-2.996-.754l-3.459 1.09 1.139-3.267a6.18 6.18 0 0 1-.886-3.141c0-3.392 2.784-6.114 6.202-6.114 3.417-.042 6.201 2.68 6.201 6.072s-2.784 6.114-6.201 6.114Z"></path>
    </g>
  </symbol>
  <symbol xmlns="http://www.w3.org/2000/svg" fill="none" viewBox="0 0 36 36" id="discount">
    <g fill="currentColor">
      <path d="M32.513 26.896a1.537 1.537 0 0 1 0-1.358l1.956-4a4.552 4.552 0 0 0-1.964-6.045l-3.934-2.087a1.537 1.537 0 0 1-.798-1.099l-.77-4.386a4.552 4.552 0 0 0-5.141-3.736l-4.41.624a1.537 1.537 0 0 1-1.291-.42l-3.2-3.096a4.552 4.552 0 0 0-6.356 0l-3.2 3.096a1.537 1.537 0 0 1-1.292.42l-4.41-.624a4.551 4.551 0 0 0-5.141 3.736l-.77 4.386a1.537 1.537 0 0 1-.798 1.099l-3.934 2.087a4.552 4.552 0 0 0-1.964 6.045l1.956 4c.21.432.21.927 0 1.359l-1.956 4a4.552 4.552 0 0 0 1.964 6.045l3.934 2.087c.424.225.715.626.798 1.099l.77 4.386a4.55 4.55 0 0 0 5.142 3.736l4.409-.624c.475-.067.946.086 1.291.42l3.2 3.096a4.556 4.556 0 0 0 3.179 1.293 4.558 4.558 0 0 0 3.178-1.293l3.2-3.096a1.538 1.538 0 0 1 1.292-.42l4.409.624a4.551 4.551 0 0 0 5.142-3.736l.77-4.386c.082-.473.373-.874.797-1.099l3.934-2.087a4.552 4.552 0 0 0 1.964-6.045l-1.956-4ZM3.734 12.608a5.55 5.55 0 0 1 5.545 5.545 5.55 5.55 0 0 1-5.545 5.544 5.55 5.55 0 0 1-5.544-5.544 5.55 5.55 0 0 1 5.544-5.544ZM.872 37.267a1.508 1.508 0 0 1-1.069.443 1.512 1.512 0 0 1-1.07-2.581l19.96-19.96a1.512 1.512 0 0 1 2.138 2.14L.872 37.265Zm14.959 2.56a5.55 5.55 0 0 1-5.544-5.544 5.55 5.55 0 0 1 5.544-5.544 5.55 5.55 0 0 1 5.544 5.544 5.55 5.55 0 0 1-5.544 5.545Z"></path>
      <path d="M15.831 31.762c-1.39 0-2.52 1.13-2.52 2.52 0 1.39 1.13 2.52 2.52 2.52 1.39 0 2.52-1.13 2.52-2.52 0-1.39-1.13-2.52-2.52-2.52ZM3.734 15.633c-1.39 0-2.52 1.13-2.52 2.52 0 1.39 1.13 2.52 2.52 2.52 1.39 0 2.52-1.13 2.52-2.52 0-1.39-1.13-2.52-2.52-2.52Z"></path>
    </g>
  </symbol>
  <symbol xmlns="http://www.w3.org/2000/svg" fill="none" viewBox="0 0 20 20" id="instagram">
    <g fill="currentColor">
      <path d="M15.814 3.7a.486.486 0 1 0 0 .973.486.486 0 0 0 0-.972ZM10 5.695A4.31 4.31 0 0 0 5.696 10 4.31 4.31 0 0 0 10 14.305 4.31 4.31 0 0 0 14.305 10 4.31 4.31 0 0 0 10 5.695Z"></path>
      <path d="M14.517 0H5.483A5.489 5.489 0 0 0 0 5.483v9.034A5.489 5.489 0 0 0 5.483 20h9.034A5.489 5.489 0 0 0 20 14.517V5.483A5.489 5.489 0 0 0 14.517 0ZM10 15.486A5.492 5.492 0 0 1 4.514 10 5.492 5.492 0 0 1 10 4.514 5.492 5.492 0 0 1 15.486 10 5.492 5.492 0 0 1 10 15.486Zm5.814-9.633a1.668 1.668 0 0 1-1.667-1.667 1.667 1.667 0 1 1 1.667 1.667Z"></path>
    </g>
  </symbol>
  <symbol xmlns="http://www.w3.org/2000/svg" fill="none" viewBox="0 0 20 20" id="clock">
    <g fill="currentColor">
      <path d="m13.563 11.766-2.788-2.091v-4.26a.774.774 0 1 0-1.55 0v4.647c0 .244.115.474.31.62l3.098 2.323a.77.77 0 0 0 1.085-.155.773.773 0 0 0-.155-1.084Z"></path>
      <path d="M10 0C4.486 0 0 4.486 0 10s4.486 10 10 10 10-4.486 10-10S15.514 0 10 0Zm0 18.45c-4.66 0-8.45-3.79-8.45-8.45 0-4.66 3.79-8.45 8.45-8.45 4.66 0 8.45 3.79 8.45 8.45 0 4.66-3.79 8.45-8.45 8.45Z"></path>
    </g>
  </symbol>
  <symbol xmlns="http://www.w3.org/2000/svg" fill="none" viewBox="0 0 233 74" id="logo">
    <path fill="#FFD600" d="M33.61.158a8.665 8.665 0 0 0-5.473 1.936l-25.04 20.36a8.315 8.315 0 0 0-3.092 6.447v34.66c0 4.628 3.835 8.381 8.564 8.381h47.02v-4.11H8.569c-2.409 0-4.363-1.913-4.363-4.27v-34.66c0-1.27.577-2.475 1.574-3.286l25.04-20.36a4.436 4.436 0 0 1 5.576 0l20.77 16.88h6.576l-24.66-20.04A8.663 8.663 0 0 0 33.609.16z"></path>
    <path fill="#333" d="M50.2 31.24 39.86 54.15 29.6 31.24h-4.398l12.54 27.89h4.031l12.5-27.89h-4.072zm42.12 27.9-.04-27.89h-3.34l-11.73 19.6-11.89-19.6h-3.339v27.89h3.91v-20.2l10.3 16.82h1.872l10.3-16.93.041 20.32h3.91zM109 55.67v-9.005h14.29v-3.387H109v-8.567h16.04v-3.467h-20.12v27.89h20.68v-3.467h-16.61zm33 3.47h4.031V34.71h9.772v-3.467h-23.58v3.467h9.773v24.43zm45.8-.25-6.76-9.364c3.991-1.395 6.271-4.503 6.271-8.806 0-6.057-4.479-9.722-11.89-9.722h-11.12v27.89h4.072v-8.487h7.044c.611 0 1.222-.04 1.792-.08l6.148 8.567h4.439zm-12.5-11.87h-6.922V34.47h6.922c5.212 0 7.94 2.271 7.94 6.256s-2.728 6.296-7.94 6.296zm26.7 8.65v-9.005h14.29v-3.387H202v-8.567h16.04v-3.467h-20.12v27.89h20.68v-3.467h-16.61z"></path>
    <path fill="#FFD600" d="M230 59.38c1.466 0 2.688-1.156 2.688-2.749 0-1.594-1.222-2.71-2.688-2.71-1.506 0-2.768 1.116-2.768 2.71 0 1.594 1.262 2.749 2.768 2.749z"></path>
  </symbol>
  <symbol xmlns="http://www.w3.org/2000/svg" fill="none" viewBox="0 0 70 51" id="hp-delivery">
    <circle cx="50.957" cy="30.5" r="18.5" fill="#FFE600"></circle>
    <path fill="#8E7F58" d="M.988 50.14h.118l16.224-1.95 16.225 1.95h.235l16.34-1.972a.987.987 0 0 0 .87-.979V7.111a.988.988 0 0 0-1.104-.978l-6.274.754a10.68 10.68 0 0 0-19.912 0l-6.274-.754H17.21L.87 8.105a.986.986 0 0 0-.87.978v40.071a.988.988 0 0 0 .986.986h.002Zm48.04-41.917v38.092l-14.37 1.726V26.72c1.627-1.758 9.699-10.74 9.699-15.954 0-.656-.06-1.31-.18-1.954l4.851-.59ZM33.671 2.046a8.724 8.724 0 0 1 8.714 8.72c0 3.738-5.747 10.849-8.714 14.122-2.972-3.278-8.708-10.39-8.708-14.122a8.725 8.725 0 0 1 8.708-8.72Zm-.986 24.674v21.32l-14.369-1.725V8.223l4.855.584a10.62 10.62 0 0 0-.18 1.954c0 5.224 8.067 14.206 9.694 15.96ZM1.974 9.95l14.37-1.727v38.092L1.975 48.04V9.95Z"></path>
    <path fill="#8E7F58" d="M33.671 14.86a4.102 4.102 0 1 0 .004-8.203 4.102 4.102 0 0 0-.004 8.204Zm0-6.228a2.13 2.13 0 1 1 .004 4.26 2.13 2.13 0 0 1-.004-4.26Z"></path>
  </symbol>
  <symbol xmlns="http://www.w3.org/2000/svg" fill="none" viewBox="0 0 64 54" id="hp-payment">
    <circle cx="44.957" cy="19.2" r="18.5" fill="#FFE600"></circle>
    <path fill="#8E7F58" d="M18.423 4.204h-1.771v1.752h1.771V4.204ZM27.283 4.204h-7.088v1.752h7.088V4.204Z"></path>
    <path fill="#8E7F58" d="M48.545 39.245a3.514 3.514 0 0 0-2.277.824 3.536 3.536 0 0 0-1.293-1.244 3.586 3.586 0 0 0-1.745-.456 3.514 3.514 0 0 0-2.277.824 3.527 3.527 0 0 0-1.267-1.227V6.832a6.105 6.105 0 0 0-1.819-4.334A6.244 6.244 0 0 0 33.484.7h-19.49A6.244 6.244 0 0 0 9.61 2.498a6.105 6.105 0 0 0-1.819 4.334v15.996a4.427 4.427 0 0 0-1.564.885c-.454.398-.82.884-1.076 1.428l-3.553 7.613a9.41 9.41 0 0 0-.894 4.038v16.47h1.771v-16.47a7.691 7.691 0 0 1 .736-3.302l3.552-7.613a2.56 2.56 0 0 1 1.028-1.112V40.12c.001.29.025.58.07.868l-.566.972 1.533.876 5.315-9.102a1.759 1.759 0 0 1 1.072-.823 1.843 1.843 0 0 1 1.347.175c.406.234.702.619.824 1.068.12.45.057.929-.177 1.332l-3.987 6.825a.894.894 0 0 0 .009.893l1.905 3.119c.408.681.626 1.459.628 2.251v4.678h1.772v-4.678a6.14 6.14 0 0 0-.47-2.321h5.378c.078.317.197.624.355.91l3.818 6.536 1.533-.876-3.819-6.535a1.739 1.739 0 0 1 .61-2.457 1.785 1.785 0 0 1 2.456.705l1.772 3.03c.1.167.25.297.431.371a.887.887 0 0 0 1.044-.273.87.87 0 0 0 .181-.535V32.237c0-.465.187-.91.52-1.239a1.782 1.782 0 0 1 2.505 0c.333.329.52.774.52 1.24v12.264c0 .232.093.455.259.62a.891.891 0 0 0 1.253 0 .871.871 0 0 0 .26-.62v-3.505c0-.464.186-.91.518-1.238a1.782 1.782 0 0 1 2.506 0c.332.328.519.774.519 1.239v3.504c0 .232.093.455.26.62a.891.891 0 0 0 1.252 0 .871.871 0 0 0 .26-.62v-2.629c0-.464.186-.91.519-1.238a1.782 1.782 0 0 1 2.506 0c.332.328.519.774.519 1.239v2.628c0 .232.093.455.259.62a.891.891 0 0 0 1.253 0 .872.872 0 0 0 .26-.62v-1.753c0-.464.186-.91.518-1.238a1.782 1.782 0 0 1 2.506 0c.332.328.52.774.52 1.238v10.513h1.771V42.749c0-.929-.373-1.82-1.038-2.477a3.564 3.564 0 0 0-2.506-1.027Zm-23.034 1.753h-3.544a.891.891 0 0 1-.626-.257.871.871 0 0 1 0-1.239.891.891 0 0 1 .626-.257h3.544c.235 0 .46.093.626.257a.871.871 0 0 1 0 1.239.891.891 0 0 1-.626.257Zm12.403-3.505c-.623.001-1.234.164-1.772.473v-5.729c0-.93-.373-1.82-1.038-2.478a3.565 3.565 0 0 0-2.506-1.026c-.94 0-1.84.37-2.505 1.026a3.485 3.485 0 0 0-1.038 2.478v11.625l-.116-.201a3.474 3.474 0 0 0-1.78-1.498c.313-.243.567-.552.742-.906.175-.354.267-.742.268-1.136a2.622 2.622 0 0 0-.781-1.856 2.681 2.681 0 0 0-1.877-.772h-3.544c-.705 0-1.38.277-1.88.77a2.613 2.613 0 0 0-.778 1.858c0 .697.28 1.366.779 1.859.498.493 1.174.77 1.88.77h1.603a3.466 3.466 0 0 0-1.126 1.752h-6.352l-1.072-1.761 3.73-6.378a3.47 3.47 0 0 0 .354-2.66 3.51 3.51 0 0 0-1.652-2.127 3.58 3.58 0 0 0-2.69-.35 3.54 3.54 0 0 0-2.151 1.633l-3.048 5.212V6.832c0-1.162.467-2.276 1.297-3.097a4.455 4.455 0 0 1 3.133-1.283h19.49c1.175 0 2.302.462 3.133 1.283a4.356 4.356 0 0 1 1.297 3.097v30.661Z"></path>
    <path fill="#8E7F58" d="M29.94 15.593h-2.657v-.877c0-.929-.374-1.82-1.038-2.477a3.564 3.564 0 0 0-2.506-1.027c-.94 0-1.841.37-2.506 1.027a3.485 3.485 0 0 0-1.038 2.477v.877h-2.658a.89.89 0 0 0-.626.256.87.87 0 0 0-.26.62V26.98c.003.696.283 1.364.781 1.856a2.68 2.68 0 0 0 1.877.772h8.86a2.68 2.68 0 0 0 1.877-.772c.498-.492.778-1.16.78-1.856V16.469a.87.87 0 0 0-.259-.62.89.89 0 0 0-.626-.256Zm-7.973-.877c0-.464.187-.91.52-1.238a1.782 1.782 0 0 1 2.505 0c.332.328.519.774.519 1.239v.876h-3.544v-.877Zm7.088 12.265a.871.871 0 0 1-.26.62.891.891 0 0 1-.626.256h-8.86a.89.89 0 0 1-.626-.257.87.87 0 0 1-.26-.619v-.876h10.632v.876Zm0-2.628H18.423v-7.008h1.772v1.752h1.772v-1.752h3.544v1.752h1.772v-1.752h1.772v7.008Z"></path>
  </symbol>
  <symbol xmlns="http://www.w3.org/2000/svg" fill="none" viewBox="0 0 63 53" id="hp-promotions">
    <circle cx="44.495" cy="31.5" r="18.5" fill="#FFE600"></circle>
    <path fill="#8E7F58" d="M23.472 0c-.664-.023-3.224 1.281-4.357 1.918a39.536 39.536 0 0 0-8.037 5.998C4.238 14.576.754 23.166 1 32.795a20.232 20.232 0 0 0 1.767 7.782 20.418 20.418 0 0 0 4.647 6.518A21.794 21.794 0 0 0 22.482 53c11.854 0 21.498-9.082 21.498-20.242a19.319 19.319 0 0 0-3.41-10.945 21.186 21.186 0 0 0-8.815-7.32 1.098 1.098 0 0 0-1.408.463 1.067 1.067 0 0 0-.132.516v5.82c0 1.45-1.282 2.629-2.858 2.629s-2.86-1.175-2.86-2.629V1.076c.001-.275-.105-.54-.296-.74-.19-.2-.451-.32-.73-.336Zm-.93 50.79a7.5 7.5 0 0 1-2.854-.524 7.436 7.436 0 0 1-2.432-1.566 7.347 7.347 0 0 1-1.64-2.367 7.282 7.282 0 0 1-.6-2.809c-.037-3.118 4.682-9.348 7.284-12.42 2.673 3.011 7.54 9.127 7.578 12.246a7.282 7.282 0 0 1-.53 2.822 7.344 7.344 0 0 1-1.581 2.406 7.435 7.435 0 0 1-2.393 1.623 7.498 7.498 0 0 1-2.839.593l.006-.004Zm4.821-24.704c2.773 0 5.036-2.155 5.036-4.784v-4.07c5.767 3.24 9.408 9.169 9.408 15.526 0 7.526-4.937 13.993-11.937 16.713a9.371 9.371 0 0 0 2.192-6.156c-.06-4.93-8.065-13.611-8.978-14.585a1.087 1.087 0 0 0-.812-.345 1.096 1.096 0 0 0-.802.365c-.89.995-8.685 9.863-8.626 14.79a9.38 9.38 0 0 0 2.15 5.877C8.163 46.69 3.362 40.323 3.168 32.724c-.237-9.234 3.002-17.13 9.626-23.47a36.144 36.144 0 0 1 9.531-6.57v18.61c0 2.635 2.26 4.782 5.038 4.782v.01Z"></path>
  </symbol>
  <symbol xmlns="http://www.w3.org/2000/svg" fill="none" viewBox="0 0 63 53" id="hp-certificate">
    <circle cx="44.094" cy="18.5" r="18.5" fill="#FFE600"></circle>
    <path fill="#8E7F58" d="m21.15 52.684.397.206a.988.988 0 0 0 .906 0l.397-.206a38.992 38.992 0 0 0 15.441-14.492A39.758 39.758 0 0 0 44 17.654v-5.291c0-.183-.05-.364-.142-.52a1 1 0 0 0-.387-.372L22.47.119a.99.99 0 0 0-.94 0L.53 11.47a1.019 1.019 0 0 0-.53.892v5.29c0 7.25 1.977 14.358 5.709 20.54a38.992 38.992 0 0 0 15.44 14.49ZM1.994 12.97 22 2.158 42.006 12.97v4.684a37.551 37.551 0 0 1-5.376 19.469A36.827 36.827 0 0 1 22 50.853a36.828 36.828 0 0 1-14.63-13.73 37.552 37.552 0 0 1-5.376-19.47V12.97Z"></path>
    <path fill="#8E7F58" d="M19.112 32.966a1 1 0 0 0 .769.367.986.986 0 0 0 .767-.367l12.519-15.329a1.014 1.014 0 0 0 .256-.752 1.02 1.02 0 0 0-.36-.707.994.994 0 0 0-.752-.225.987.987 0 0 0-.68.397L19.884 30.73l-4.773-5.886a1.002 1.002 0 0 0-.674-.364.985.985 0 0 0-.73.226 1.009 1.009 0 0 0-.36.684 1.026 1.026 0 0 0 .223.742l5.542 6.834Z"></path>
  </symbol>
  <symbol xmlns="http://www.w3.org/2000/svg" fill="none" viewBox="0 0 20 20" id="info">
    <path fill="#FFD600" d="M10.697.023A10 10 0 0 0 .024 10.713C.391 16.005 5.068 20 10.902 20h4.931A4.172 4.172 0 0 0 20 15.833v-5.55A10.174 10.174 0 0 0 10.697.023ZM10 4.167a1.25 1.25 0 1 1 0 2.5 1.25 1.25 0 0 1 0-2.5ZM11.666 15A.833.833 0 1 1 10 15v-5h-.834a.833.833 0 0 1 0-1.667H10A1.667 1.667 0 0 1 11.666 10v5Z"></path>
  </symbol>
  <symbol xmlns="http://www.w3.org/2000/svg" fill="none" viewBox="0 0 24 24" id="documents">
    <g clip-path="url(#clip0_892_5262)">
      <path fill="#FFD600" d="M16.86 5H12V.016L16.86 5ZM10 7V0H5a3 3 0 0 0-3 3v16h15V7h-7Zm9 .01v14.028H7V24h15V10l-3-2.99Z"></path>
    </g>
    <defs>
      <clipPath id="clip0_892_5262">
        <path fill="#fff" d="M0 0h24v24H0z"></path>
      </clipPath>
    </defs>
  </symbol>
  <symbol xmlns="http://www.w3.org/2000/svg" fill="none" viewBox="0 0 20 20" id="phone">
    <path fill="currentColor" d="M14.393 20c-3.506 0-7.25-1.288-10.177-4.216A14.353 14.353 0 0 1 0 5.607 5.604 5.604 0 0 1 5.607 0c.24 0 .455.146.544.368l2.51 6.276c.12.3-.026.642-.326.762L5.577 8.509a6.327 6.327 0 0 0 5.914 5.914l1.103-2.758c.12-.3.46-.446.762-.326l6.276 2.51a.586.586 0 0 1 .368.544A5.604 5.604 0 0 1 14.393 20Z"></path>
  </symbol>
  <symbol xmlns="http://www.w3.org/2000/svg" fill="none" viewBox="0 0 20 20" id="present">
    <path fill="currentColor" d="M1.667 12.5h7.5V20H5.833a4.167 4.167 0 0 1-4.166-4.167V12.5ZM20 9.167a1.667 1.667 0 0 1-1.667 1.666h-7.5V7.464c-.28.022-.559.036-.833.036-.274 0-.553-.014-.833-.036v3.37h-7.5A1.667 1.667 0 0 1 0 9.166a3.333 3.333 0 0 1 3.333-3.334h1.449A4.28 4.28 0 0 1 3.333 2.5.833.833 0 0 1 5 2.5c0 2.185 1.976 2.942 3.478 3.2A7.777 7.777 0 0 1 7.5 2.5a2.5 2.5 0 1 1 5 0 7.777 7.777 0 0 1-.978 3.2C13.024 5.443 15 4.686 15 2.5a.833.833 0 1 1 1.667 0 4.281 4.281 0 0 1-1.449 3.333h1.449A3.333 3.333 0 0 1 20 9.167ZM9.167 2.5c.1.886.384 1.74.833 2.51.449-.77.733-1.624.833-2.51a.834.834 0 0 0-1.666 0ZM10.833 20h3.334a4.167 4.167 0 0 0 4.166-4.167V12.5h-7.5V20Z"></path>
  </symbol>
  <symbol xmlns="http://www.w3.org/2000/svg" fill="none" viewBox="0 0 18 18" id="close">
    <path fill="#DEDEDE" d="m4.357 3 10.854 10.853-1.143 1.143L3.214 4.142z"></path>
    <path fill="#DEDEDE" d="M3 13.857 13.853 3.004l1.143 1.142L4.142 15z"></path>
    <circle cx="9" cy="9" r="9" fill="#D75150"></circle>
    <path fill="#fff" d="M5.287 5.287a.75.75 0 0 1 1.061 0L9 7.94l2.652-2.652a.75.75 0 0 1 1.06 1.061L10.06 9l2.652 2.652a.75.75 0 0 1-1.06 1.06L9 10.06l-2.652 2.652a.75.75 0 0 1-1.06-1.06L7.938 9 5.287 6.348a.75.75 0 0 1 0-1.06Z"></path>
  </symbol>
</svg>