<svg width="37" height="37" viewBox="0 0 37 37" fill="none" xmlns="http://www.w3.org/2000/svg">
<path d="M36.8888 10.8726C36.7987 8.90335 36.486 7.55853 36.0286 6.38196C35.5643 5.14751 34.836 4.02937 33.8948 3.10516C32.9709 2.16402 31.8525 1.43543 30.618 0.970787C29.4412 0.513763 28.0967 0.201271 26.1274 0.111786C24.1545 0.0214539 23.5242 0 18.5 0C13.4758 0 12.8455 0.0214539 10.8726 0.111221C8.90335 0.201271 7.55882 0.514046 6.38196 0.971352C5.14751 1.43571 4.02937 2.16402 3.10516 3.10516C2.16402 4.02909 1.43543 5.14723 0.970787 6.38168C0.513763 7.55853 0.201271 8.90335 0.111786 10.8723C0.0214539 12.8455 0 13.4756 0 18.4997C0 23.5242 0.0214539 24.1545 0.111786 26.1274C0.201553 28.0964 0.514328 29.4412 0.971634 30.618C1.436 31.8522 2.1643 32.9706 3.10545 33.8946C4.02937 34.8357 5.1478 35.564 6.38224 36.0284C7.55882 36.486 8.90363 36.7984 10.8729 36.8885C12.8461 36.9785 13.4761 36.9997 18.5003 36.9997C23.5244 36.9997 24.1548 36.9785 26.1277 36.8885C28.0969 36.7984 29.4415 36.486 30.6183 36.0284C33.1033 35.0675 35.0677 33.103 36.0286 30.618C36.4862 29.4412 36.7987 28.0964 36.8888 26.1274C36.9785 24.1542 37 23.5242 37 18.5C37 13.4756 36.9785 12.8455 36.8888 10.8726ZM33.5586 25.9758C33.4765 27.7796 33.175 28.7592 32.9218 29.411C32.2993 31.0245 31.0243 32.2996 29.4107 32.9221C28.7589 33.1753 27.7794 33.4768 25.9755 33.5589C24.0252 33.6481 23.44 33.6667 18.5 33.6667C13.5597 33.6667 12.9748 33.6481 11.0242 33.5589C9.22064 33.4768 8.2411 33.1753 7.58902 32.9221C6.78563 32.6254 6.05874 32.1526 5.46198 31.538C4.84744 30.9413 4.37461 30.2147 4.07793 29.411C3.82471 28.7592 3.52323 27.7796 3.44109 25.9758C3.35217 24.0252 3.33325 23.44 3.33325 18.5003C3.33325 13.5603 3.35217 12.9754 3.44109 11.0245C3.52351 9.22064 3.82471 8.2411 4.07793 7.5893C4.37461 6.78563 4.84772 6.05874 5.46198 5.46198C6.05874 4.84744 6.78563 4.37461 7.5893 4.07821C8.2411 3.82471 9.22064 3.52351 11.0245 3.44109C12.9751 3.35217 13.5603 3.33325 18.5 3.33325C23.4398 3.33325 24.0247 3.35217 25.9755 3.44137C27.7794 3.52351 28.7586 3.825 29.4107 4.07821C30.2141 4.37489 30.941 4.84772 31.5377 5.46198C32.1523 6.05874 32.6251 6.78563 32.9215 7.5893C33.175 8.2411 33.4765 9.22064 33.5586 11.0245C33.6476 12.9751 33.6665 13.5603 33.6665 18.5C33.6665 23.44 33.6478 24.0249 33.5586 25.9758Z" fill="url(#paint0_linear_104_35)"/>
<path d="M18.4997 8.99988C13.2531 8.99988 8.99988 13.2534 8.99988 18.5C8.99988 23.7466 13.2531 27.9998 18.4997 27.9998C23.7466 27.9998 27.9998 23.7466 27.9998 18.5C27.9998 13.2534 23.7466 8.99988 18.4997 8.99988ZM18.4997 24.6666C15.0942 24.6663 12.3331 21.9055 12.3334 18.4997C12.3334 15.0942 15.0942 12.3331 18.5 12.3331C21.9058 12.3334 24.6666 15.0942 24.6666 18.4997C24.6666 21.9055 21.9055 24.6666 18.4997 24.6666Z" fill="url(#paint1_linear_104_35)"/>
<path d="M30.5952 8.62473C30.5952 9.85071 29.6013 10.8446 28.3753 10.8446C27.149 10.8446 26.1551 9.85071 26.1551 8.62473C26.1551 7.39848 27.149 6.40454 28.3753 6.40454C29.6013 6.40454 30.5952 7.39848 30.5952 8.62473Z" fill="url(#paint2_linear_104_35)"/>
<defs>
<linearGradient id="paint0_linear_104_35" x1="3.10498" y1="33.8947" x2="33.895" y2="3.10468" gradientUnits="userSpaceOnUse">
<stop stop-color="#FFD600"/>
<stop offset="0.5" stop-color="#FF0100"/>
<stop offset="1" stop-color="#D800B9"/>
</linearGradient>
<linearGradient id="paint1_linear_104_35" x1="11.7824" y1="25.2173" x2="25.2174" y2="11.7824" gradientUnits="userSpaceOnUse">
<stop stop-color="#FF6400"/>
<stop offset="0.5" stop-color="#FF0100"/>
<stop offset="1" stop-color="#FD0056"/>
</linearGradient>
<linearGradient id="paint2_linear_104_35" x1="26.8054" y1="10.1943" x2="29.9449" y2="7.05486" gradientUnits="userSpaceOnUse">
<stop stop-color="#F30072"/>
<stop offset="1" stop-color="#E50097"/>
</linearGradient>
</defs>
</svg>
